<?xml version="1.0" encoding="UTF-8" standalone="no"?>
<!DOCTYPE svg PUBLIC "-//W3C//DTD SVG 1.1//EN" "http://www.w3.org/Graphics/SVG/1.1/DTD/svg11.dtd">
<svg width="100%" height="100%" viewBox="0 0 48 49" version="1.1" xmlns="http://www.w3.org/2000/svg" xmlns:xlink="http://www.w3.org/1999/xlink" xml:space="preserve" xmlns:serif="http://www.serif.com/" style="fill-rule:evenodd;clip-rule:evenodd;stroke-linejoin:round;stroke-miterlimit:2;">
    <g transform="matrix(1,0,0,1,-98,-180)">
        <path d="M103.379,185.931C100.939,185.931 98.961,187.909 98.961,190.349L98.961,224.517C98.961,226.957 100.939,228.935 103.379,228.935L141.376,228.935C143.817,228.935 145.795,226.957 145.795,224.517L145.795,190.349C145.795,187.909 143.817,185.931 141.376,185.931L139.83,185.931L139.83,188.728C139.83,190.596 138.311,192.116 136.442,192.116C134.575,192.116 133.055,190.596 133.055,188.728L133.055,185.931L111.701,185.931L111.701,188.728C111.701,190.596 110.18,192.116 108.313,192.116C106.444,192.116 104.925,190.596 104.925,188.728L104.925,185.931L103.379,185.931ZM106.178,198.302L138.577,198.302C139.554,198.302 140.345,199.018 140.345,199.902L140.345,222.035C140.345,222.918 139.554,223.633 138.577,223.633L106.178,223.633C105.202,223.633 104.411,222.918 104.411,222.035L104.411,199.902C104.411,199.018 105.202,198.302 106.178,198.302ZM107.508,211.844L116.08,211.844L116.08,220.616L107.508,220.616L107.508,211.844ZM118.299,211.844L126.871,211.844L126.871,220.616L118.299,220.616L118.299,211.844ZM129.492,211.844L138.063,211.844L138.063,220.616L129.492,220.616L129.492,211.844ZM107.508,201.063L116.08,201.063L116.08,209.835L107.508,209.835L107.508,201.063ZM118.299,201.063L126.871,201.063L126.871,209.835L118.299,209.835L118.299,201.063ZM129.492,201.063L138.063,201.063L138.063,209.835L129.492,209.835L129.492,201.063ZM106.693,181.953L106.693,188.728C106.693,189.623 107.419,190.349 108.313,190.349C109.206,190.349 109.933,189.623 109.933,188.728L109.933,181.953C109.933,181.059 109.206,180.334 108.313,180.334C107.419,180.334 106.693,181.059 106.693,181.953ZM134.822,181.953L134.822,188.728C134.822,189.623 135.549,190.349 136.442,190.349C137.336,190.349 138.062,189.623 138.062,188.728L138.062,181.953C138.062,181.059 137.336,180.334 136.442,180.334C135.549,180.334 134.822,181.059 134.822,181.953Z" style="fill:rgb(255,255,255);fill-rule:nonzero;"/>
    </g>
</svg>
