<?xml version="1.0" encoding="UTF-8" standalone="no"?>
<!DOCTYPE svg PUBLIC "-//W3C//DTD SVG 1.1//EN" "http://www.w3.org/Graphics/SVG/1.1/DTD/svg11.dtd">
<svg width="100%" height="100%" viewBox="0 0 57 56" version="1.1" xmlns="http://www.w3.org/2000/svg" xmlns:xlink="http://www.w3.org/1999/xlink" xml:space="preserve" xmlns:serif="http://www.serif.com/" style="fill-rule:evenodd;clip-rule:evenodd;stroke-linejoin:round;stroke-miterlimit:2;">
    <g transform="matrix(1,0,0,1,-94,-243)">
        <path d="M94.547,271.036C94.547,286.407 107.007,298.869 122.378,298.869C137.749,298.869 150.21,286.407 150.21,271.036C150.21,255.665 137.749,243.205 122.378,243.205C107.007,243.205 94.547,255.665 94.547,271.036ZM143.871,271.036C143.871,282.907 134.249,292.529 122.378,292.529C110.508,292.529 100.884,282.907 100.884,271.036C100.884,259.165 110.508,249.543 122.378,249.543C134.249,249.543 143.871,259.165 143.871,271.036ZM121.392,269.051C120.77,269.429 120.354,270.113 120.354,270.893C120.354,271.165 120.405,271.426 120.497,271.665L107.095,277.249C106.654,277.432 106.325,277.649 106.36,277.735C106.396,277.82 106.782,277.739 107.223,277.555L120.64,271.964C121.011,272.611 121.709,273.046 122.508,273.046C123.151,273.046 123.728,272.765 124.122,272.319L133.362,272.319C134.061,272.319 134.627,271.753 134.627,271.054C134.627,270.355 134.061,269.789 133.362,269.789L124.358,269.789C124.084,269.331 123.644,268.983 123.121,268.828L123.121,254.627C123.121,254.149 122.734,253.762 122.257,253.762C121.779,253.762 121.392,254.149 121.392,254.627L121.392,269.051Z" style="fill:rgb(255,255,255);fill-rule:nonzero;"/>
    </g>
</svg>
