<?xml version="1.0" encoding="UTF-8" standalone="no"?>
<!DOCTYPE svg PUBLIC "-//W3C//DTD SVG 1.1//EN" "http://www.w3.org/Graphics/SVG/1.1/DTD/svg11.dtd">
<svg width="100%" height="100%" viewBox="0 0 51 51" version="1.1" xmlns="http://www.w3.org/2000/svg" xmlns:xlink="http://www.w3.org/1999/xlink" xml:space="preserve" xmlns:serif="http://www.serif.com/" style="fill-rule:evenodd;clip-rule:evenodd;stroke-linejoin:round;stroke-miterlimit:2;">
    <g transform="matrix(1,0,0,1,-146,-71)">
        <g transform="matrix(0.394248,0,0,0.385451,61.6454,60.738)">
            <path d="M340.389,158.823C340.159,158.893 339.598,159.019 339.077,158.781L285.158,158.575C284.492,158.864 283.769,158.573 283.762,158.57L283.762,158.57C283.749,158.575 281.262,159.577 281.262,156.004L281.262,90.244C281.262,79.752 290.192,59.309 312.197,59.309C334.21,59.309 342.997,79.069 342.997,90.109L342.997,156.22C342.997,159.803 340.497,158.786 340.497,158.786L340.389,158.823ZM231.547,121.145L231.547,124.739C231.547,124.739 226.2,124.739 226.2,124.739C222.015,124.739 216.173,128.226 216.173,135.155L216.173,155.89C216.173,157.27 217.292,158.39 218.673,158.39L275.408,158.39C276.788,158.39 277.908,157.27 277.908,155.89L277.908,135.155C277.908,128.226 272.065,124.739 267.881,124.739L262.493,124.739L262.493,121.881C268.015,117.212 270.886,110.508 270.886,105.454L270.886,94.283C270.887,94.251 270.887,94.22 270.886,94.188L270.886,86.94C270.886,83.959 270.127,80.415 267.852,78.026C266.658,76.772 265.06,75.784 262.906,75.353L262.906,67.788C262.906,66.407 261.787,65.288 260.406,65.288L247.04,65.288C236.706,65.288 224.069,73.072 224.069,85.344L224.069,105.774C224.069,109.701 226.51,116.27 231.547,121.145ZM296.904,132.452L291.289,132.452C289.15,132.452 286.262,134.327 286.262,137.868L286.262,153.579L294.356,153.61L294.356,148.568C294.356,147.188 295.476,146.068 296.856,146.068C298.236,146.068 299.356,147.188 299.356,148.568L299.356,153.629L325.409,153.729L325.409,148.568C325.409,147.188 326.529,146.068 327.909,146.068C329.289,146.068 330.409,147.188 330.409,148.568L330.409,153.748L337.997,153.777L337.997,137.868C337.997,134.327 335.109,132.452 332.97,132.452L327.357,132.452C326.437,137.246 322.535,144.947 312.129,144.947C301.987,144.947 297.916,136.888 296.904,132.452ZM233.492,129.739L226.2,129.739C224.061,129.739 221.173,131.613 221.173,135.155C221.173,135.155 221.173,153.39 221.173,153.39L229.267,153.39L229.267,148.568C229.267,147.188 230.387,146.068 231.767,146.068C233.147,146.068 234.267,147.188 234.267,148.568L234.267,153.39L260.32,153.39L260.32,148.568C260.32,147.188 261.44,146.068 262.82,146.068C264.2,146.068 265.32,147.188 265.32,148.568L265.32,153.39L272.908,153.39L272.908,135.155C272.908,131.613 270.019,129.739 267.881,129.739L261.06,129.739L254.087,134.682C253.249,135.276 252.134,135.297 251.274,134.736L247.437,132.231C247.355,132.229 247.273,132.224 247.193,132.215L242.122,134.772C241.248,135.213 240.198,135.103 239.434,134.492L233.492,129.739ZM306.91,125.974L306.91,129.952C306.91,131.333 305.791,132.452 304.41,132.452L302.015,132.452C302.971,135.437 305.86,139.947 312.129,139.947C318.559,139.947 321.346,135.628 322.24,132.452L319.848,132.452C318.468,132.452 317.348,131.333 317.348,129.952L317.348,126.088C315.836,126.4 314.216,126.571 312.485,126.571C310.485,126.571 308.628,126.358 306.91,125.974ZM257.493,125.121C255.255,126.191 252.748,126.946 249.978,127.262L249.978,127.918L252.583,129.619L257.493,126.139L257.493,125.121ZM236.547,124.83L236.547,125.779L241.304,129.585L244.978,127.732L244.978,127.338C241.795,127.06 238.987,126.149 236.547,124.83ZM337.997,128.93L337.997,90.109C337.997,80.861 330.636,64.309 312.197,64.309C293.749,64.309 286.262,81.448 286.262,90.244L286.262,128.93C287.906,127.945 289.715,127.452 291.289,127.452C291.289,127.452 301.91,127.452 301.91,127.452L301.91,124.225C292.595,119.666 288.789,109.683 288.789,105.429C288.789,100.445 288.814,93.826 288.814,93.826C288.819,92.449 289.936,91.335 291.313,91.335L294.356,91.335L294.356,87.918C294.356,86.538 295.476,85.418 296.856,85.418C298.236,85.418 299.356,86.538 299.356,87.918L299.356,91.335L301.813,91.335L301.813,87.918C301.813,86.538 302.933,85.418 304.313,85.418C305.693,85.418 306.813,86.538 306.813,87.918L306.813,91.335L309.27,91.335L309.27,87.918C309.27,86.538 310.39,85.418 311.77,85.418C313.149,85.418 314.27,86.538 314.27,87.918L314.27,91.335L316.726,91.335L316.726,87.918C316.726,86.538 317.847,85.418 319.226,85.418C320.606,85.418 321.726,86.538 321.726,87.918L321.726,91.335L324.183,91.335L324.183,87.918C324.183,86.538 325.303,85.418 326.683,85.418C328.063,85.418 329.183,86.538 329.183,87.918L329.183,91.335L333.297,91.335C334.678,91.335 335.797,92.454 335.797,93.835L335.797,104.535C335.797,108.771 332.034,119.723 322.348,124.401L322.348,127.452L332.97,127.452C334.544,127.452 336.353,127.945 337.997,128.93ZM265.886,95.694C264.875,94.999 263.487,93.806 261.968,91.808C257.14,93.823 253.296,95.128 246.156,95.571C240.339,95.932 235.307,93.571 232.657,92.003L229.069,96.095L229.069,105.774C229.069,111.074 234.941,122.426 247.04,122.426C251.294,122.426 254.878,121.171 257.742,119.25C258.084,118.545 258.747,118.025 259.541,117.88C263.694,114.305 265.886,109.303 265.886,105.454L265.886,95.694ZM293.805,96.335L330.797,96.335C330.797,96.335 330.797,104.535 330.797,104.535C330.797,108.786 325.798,121.571 312.485,121.571C299.189,121.571 293.789,109.786 293.789,105.429C293.789,102.378 293.798,98.714 293.805,96.335L293.805,96.335ZM265.886,88.7L265.886,86.94C265.886,84.89 265.565,82.278 263.607,80.942C262.816,80.403 261.764,80.118 260.406,80.118C259.025,80.118 257.906,78.998 257.906,77.618C257.906,77.618 257.906,70.288 257.906,70.288L247.04,70.288C239.096,70.288 229.069,75.909 229.069,85.344L229.069,88.51L230.331,87.071C231.208,86.071 232.715,85.932 233.759,86.756C233.759,86.756 239.13,90.997 245.846,90.581C253.135,90.128 256.628,88.654 261.876,86.419C262.996,85.942 264.297,86.341 264.957,87.365C265.275,87.859 265.586,88.302 265.886,88.7ZM264.082,36.539C264.841,35.688 265.828,35.027 266.994,34.671C271.552,33.279 273.907,35.639 276.861,38.823C277.334,39.333 277.998,39.623 278.694,39.623C279.389,39.623 280.053,39.333 280.526,38.823C283.48,35.639 285.835,33.279 290.393,34.671C295.103,36.109 296.817,42.409 292.801,46.457C289.332,49.953 282.055,57.263 278.694,60.639C275.332,57.263 268.055,49.953 264.587,46.457C263.04,44.899 262.329,43.025 262.328,41.207C262.327,39.827 261.205,38.708 259.825,38.71C258.446,38.711 257.327,39.832 257.328,41.212C257.33,44.239 258.461,47.383 261.037,49.979C265.635,54.613 276.922,65.947 276.922,65.947C277.391,66.418 278.029,66.682 278.694,66.682C279.359,66.682 279.996,66.418 280.465,65.947C280.465,65.947 291.752,54.613 296.35,49.979C303.224,43.051 299.913,32.35 291.854,29.889C286.005,28.103 282.393,29.963 278.694,33.538C274.995,29.963 271.382,28.103 265.534,29.889C263.458,30.523 261.701,31.697 260.35,33.212C259.432,34.242 259.523,35.824 260.553,36.742C261.583,37.66 263.164,37.569 264.082,36.539Z" style="fill:rgb(46,53,79);"/>
        </g>
    </g>
</svg>
