<?xml version="1.0" encoding="UTF-8" standalone="no"?>
<!DOCTYPE svg PUBLIC "-//W3C//DTD SVG 1.1//EN" "http://www.w3.org/Graphics/SVG/1.1/DTD/svg11.dtd">
<svg width="100%" height="100%" viewBox="0 0 51 51" version="1.1" xmlns="http://www.w3.org/2000/svg" xmlns:xlink="http://www.w3.org/1999/xlink" xml:space="preserve" xmlns:serif="http://www.serif.com/" style="fill-rule:evenodd;clip-rule:evenodd;stroke-linejoin:round;stroke-miterlimit:2;">
    <g transform="matrix(1,0,0,1,-212,-71)">
        <g transform="matrix(0.411953,0,0,0.448108,65.2214,50.8401)">
            <path d="M445.434,58.851L425.495,58.851L425.495,54.307C425.495,50.388 422.313,47.206 418.394,47.206C414.476,47.206 411.294,50.388 411.294,54.307L411.294,58.851L391.355,58.851L391.355,54.307C391.355,50.388 388.173,47.206 384.255,47.206C380.336,47.206 377.154,50.388 377.154,54.307L377.154,58.851L375.892,58.851C365.856,58.851 357.708,66.998 357.708,77.034L357.708,140.603C357.708,150.639 365.856,158.786 375.892,158.786C375.892,158.786 460.897,158.786 460.897,158.786C470.933,158.786 479.081,150.639 479.081,140.603L479.081,77.034C479.081,66.998 470.933,58.851 460.897,58.851L459.635,58.851L459.635,54.307C459.635,50.388 456.453,47.206 452.534,47.206C448.615,47.206 445.434,50.388 445.434,54.307L445.434,58.851ZM474.081,86.6L474.081,140.603C474.081,147.879 468.173,153.786 460.897,153.786L375.892,153.786C368.615,153.786 362.708,147.879 362.708,140.603L362.708,86.6L474.081,86.6ZM425.24,136.387C425.24,135.006 424.121,133.887 422.74,133.887L413.501,133.887C412.121,133.887 411.001,135.006 411.001,136.387L411.001,145.626C411.001,147.006 412.121,148.126 413.501,148.126L422.74,148.126C424.121,148.126 425.24,147.006 425.24,145.626L425.24,136.387ZM383.297,136.387C383.297,135.006 382.177,133.887 380.797,133.887L371.558,133.887C370.177,133.887 369.058,135.006 369.058,136.387L369.058,145.626C369.058,147.006 370.177,148.126 371.558,148.126L380.797,148.126C382.177,148.126 383.297,147.006 383.297,145.626L383.297,136.387ZM446.212,136.387C446.212,135.006 445.093,133.887 443.712,133.887L434.473,133.887C433.092,133.887 431.973,135.006 431.973,136.387L431.973,145.626C431.973,147.006 433.092,148.126 434.473,148.126L443.712,148.126C445.093,148.126 446.212,147.006 446.212,145.626L446.212,136.387ZM467.184,136.387C467.184,135.006 466.065,133.887 464.684,133.887L455.445,133.887C454.064,133.887 452.945,135.006 452.945,136.387L452.945,145.626C452.945,147.006 454.064,148.126 455.445,148.126L464.684,148.126C466.065,148.126 467.184,147.006 467.184,145.626L467.184,136.387ZM404.268,136.387C404.268,135.006 403.149,133.887 401.768,133.887L392.529,133.887C391.149,133.887 390.029,135.006 390.029,136.387L390.029,145.626C390.029,147.006 391.149,148.126 392.529,148.126L401.768,148.126C403.149,148.126 404.268,147.006 404.268,145.626L404.268,136.387ZM420.24,138.887L420.24,143.126C420.24,143.126 416.001,143.126 416.001,143.126C416.001,143.126 416.001,138.887 416.001,138.887L420.24,138.887ZM378.297,138.887L378.297,143.126C378.297,143.126 374.058,143.126 374.058,143.126C374.058,143.126 374.058,138.887 374.058,138.887L378.297,138.887ZM441.212,138.887L441.212,143.126C441.212,143.126 436.973,143.126 436.973,143.126C436.973,143.126 436.973,138.887 436.973,138.887L441.212,138.887ZM462.184,138.887L462.184,143.126C462.184,143.126 457.945,143.126 457.945,143.126C457.945,143.126 457.945,138.887 457.945,138.887L462.184,138.887ZM399.268,138.887L399.268,143.126C399.268,143.126 395.029,143.126 395.029,143.126C395.029,143.126 395.029,138.887 395.029,138.887L399.268,138.887ZM413.795,100.031C414.554,99.179 415.54,98.518 416.707,98.162C421.265,96.77 423.62,99.131 426.574,102.314C427.047,102.824 427.711,103.114 428.406,103.114C429.102,103.114 429.766,102.824 430.239,102.314C433.193,99.131 435.548,96.77 440.106,98.162C444.815,99.6 446.53,105.9 442.513,109.948C439.045,113.444 431.768,120.755 428.406,124.131C425.045,120.755 417.768,113.444 414.299,109.948C412.753,108.39 412.042,106.516 412.04,104.699C412.039,103.319 410.918,102.2 409.538,102.201C408.158,102.202 407.039,103.323 407.04,104.703C407.043,107.73 408.174,110.874 410.75,113.47C415.348,118.104 426.635,129.438 426.635,129.438C427.104,129.909 427.741,130.174 428.406,130.174C429.071,130.174 429.709,129.909 430.178,129.438C430.178,129.438 441.465,118.104 446.063,113.47C452.937,106.543 449.625,95.841 441.566,93.38C435.718,91.594 432.105,93.455 428.406,97.03C424.707,93.455 421.095,91.594 415.246,93.38C413.17,94.014 411.414,95.188 410.063,96.703C409.145,97.733 409.235,99.315 410.265,100.233C411.295,101.151 412.877,101.061 413.795,100.031ZM467.184,115.806C467.184,114.425 466.065,113.306 464.684,113.306L455.445,113.306C454.064,113.306 452.945,114.425 452.945,115.806L452.945,125.045C452.945,126.426 454.064,127.545 455.445,127.545L464.684,127.545C466.065,127.545 467.184,126.426 467.184,125.045L467.184,115.806ZM383.297,115.806C383.297,114.425 382.177,113.306 380.797,113.306L371.558,113.306C370.177,113.306 369.058,114.425 369.058,115.806L369.058,125.045C369.058,126.426 370.177,127.545 371.558,127.545L380.797,127.545C382.177,127.545 383.297,126.426 383.297,125.045L383.297,115.806ZM404.268,115.806C404.268,114.425 403.149,113.306 401.768,113.306L392.529,113.306C391.149,113.306 390.029,114.425 390.029,115.806L390.029,125.045C390.029,126.426 391.149,127.545 392.529,127.545L401.768,127.545C403.149,127.545 404.268,126.426 404.268,125.045L404.268,115.806ZM462.184,118.306L462.184,122.545C462.184,122.545 457.945,122.545 457.945,122.545C457.945,122.545 457.945,118.306 457.945,118.306L462.184,118.306ZM378.297,118.306L378.297,122.545C378.297,122.545 374.058,122.545 374.058,122.545C374.058,122.545 374.058,118.306 374.058,118.306L378.297,118.306ZM399.268,118.306L399.268,122.545C399.268,122.545 395.029,122.545 395.029,122.545C395.029,122.545 395.029,118.306 395.029,118.306L399.268,118.306ZM404.268,95.225C404.268,93.844 403.149,92.725 401.768,92.725L392.529,92.725C391.149,92.725 390.029,93.844 390.029,95.225L390.029,104.464C390.029,105.845 391.149,106.964 392.529,106.964L401.768,106.964C403.149,106.964 404.268,105.845 404.268,104.464L404.268,95.225ZM467.184,95.225C467.184,93.844 466.065,92.725 464.684,92.725L455.445,92.725C454.064,92.725 452.945,93.844 452.945,95.225L452.945,104.464C452.945,105.845 454.064,106.964 455.445,106.964L464.684,106.964C466.065,106.964 467.184,105.845 467.184,104.464L467.184,95.225ZM399.268,97.725L399.268,101.964C399.268,101.964 395.029,101.964 395.029,101.964C395.029,101.964 395.029,97.725 395.029,97.725L399.268,97.725ZM462.184,97.725L462.184,101.964C462.184,101.964 457.945,101.964 457.945,101.964C457.945,101.964 457.945,97.725 457.945,97.725L462.184,97.725ZM459.635,63.851L459.635,68.395C459.635,72.298 456.478,75.47 452.58,75.495L452.534,75.495C448.615,75.495 445.434,72.313 445.434,68.395L445.434,63.851L425.495,63.851L425.495,68.395C425.495,72.298 422.338,75.47 418.44,75.495L418.394,75.495C418.333,75.495 418.272,75.494 418.211,75.493C414.377,75.395 411.294,72.252 411.294,68.395L411.294,63.851L391.355,63.851C391.355,63.851 391.355,68.395 391.355,68.395C391.355,72.298 388.198,75.47 384.3,75.495L384.255,75.495C380.336,75.495 377.154,72.313 377.154,68.395L377.154,63.851L375.892,63.851C368.615,63.851 362.708,69.758 362.708,77.034L362.708,81.6L474.081,81.6L474.081,77.034C474.081,69.758 468.173,63.851 460.897,63.851L459.635,63.851ZM450.434,68.395C450.434,69.554 451.375,70.495 452.534,70.495L452.548,70.495C453.701,70.488 454.635,69.549 454.635,68.395L454.635,54.307C454.635,53.147 453.693,52.206 452.534,52.206C451.375,52.206 450.434,53.147 450.434,54.307L450.434,68.395ZM416.294,68.395C416.294,69.554 417.235,70.495 418.394,70.495L418.408,70.495C419.561,70.488 420.495,69.549 420.495,68.395L420.495,54.307C420.495,53.147 419.554,52.206 418.394,52.206C417.235,52.206 416.294,53.147 416.294,54.307L416.294,68.395ZM382.154,68.395C382.154,69.554 383.095,70.495 384.255,70.495L384.268,70.495C385.421,70.488 386.355,69.549 386.355,68.395L386.355,54.307C386.355,53.147 385.414,52.206 384.255,52.206C383.095,52.206 382.154,53.147 382.154,54.307L382.154,68.395Z" style="fill:rgb(46,53,79);"/>
        </g>
    </g>
</svg>
