<?xml version="1.0" encoding="UTF-8" standalone="no"?>
<!DOCTYPE svg PUBLIC "-//W3C//DTD SVG 1.1//EN" "http://www.w3.org/Graphics/SVG/1.1/DTD/svg11.dtd">
<svg width="100%" height="100%" viewBox="0 0 45 84" version="1.1" xmlns="http://www.w3.org/2000/svg" xmlns:xlink="http://www.w3.org/1999/xlink" xml:space="preserve" xmlns:serif="http://www.serif.com/" style="fill-rule:evenodd;clip-rule:evenodd;stroke-linejoin:round;stroke-miterlimit:2;">
    <g transform="matrix(1,0,0,1,-376,-251)">
        <g transform="matrix(1,0,0,1,366.35,246.078)">
            <g transform="matrix(3.51675,0,0,3.51675,51.3665,42.2684)">
                <path d="M0,2.741L0.648,-1.485L-3.406,-1.485L-3.406,-4.228C-3.406,-5.384 -2.84,-6.511 -1.023,-6.511L0.82,-6.511L0.82,-10.11C0.82,-10.11 -0.854,-10.395 -2.453,-10.395C-5.793,-10.395 -7.976,-8.371 -7.976,-4.707L-7.976,-1.485L-11.688,-1.485L-11.688,2.741L-7.976,2.741L-7.976,12.958C-7.231,13.075 -6.469,13.136 -5.691,13.136C-4.914,13.136 -4.151,13.075 -3.406,12.958L-3.406,2.741L0,2.741Z" style="fill:white;fill-rule:nonzero;"/>
            </g>
        </g>
    </g>
</svg>
