<?xml version="1.0" encoding="UTF-8" standalone="no"?>
<!DOCTYPE svg PUBLIC "-//W3C//DTD SVG 1.1//EN" "http://www.w3.org/Graphics/SVG/1.1/DTD/svg11.dtd">
<svg width="100%" height="100%" viewBox="0 0 50 51" version="1.1" xmlns="http://www.w3.org/2000/svg" xmlns:xlink="http://www.w3.org/1999/xlink" xml:space="preserve" xmlns:serif="http://www.serif.com/" style="fill-rule:evenodd;clip-rule:evenodd;stroke-linejoin:round;stroke-miterlimit:2;">
    <g transform="matrix(1,0,0,1,-351,-71)">
        <g transform="matrix(0.415313,0,0,0.415313,88.6763,52.3882)">
            <path d="M683.982,158.786L715.577,167.252C720.943,168.69 726.467,165.501 727.905,160.135C727.905,160.135 749.374,80.013 749.374,80.013C750.812,74.647 747.622,69.123 742.256,67.685L723.838,62.75L723.838,57.927C723.838,52.01 719.034,47.206 713.117,47.206L644.389,47.206C638.472,47.206 633.668,52.01 633.668,57.927L633.668,148.065C633.668,153.982 638.472,158.786 644.389,158.786L683.982,158.786ZM723.838,67.926L723.838,148.065C723.838,152.723 720.862,156.69 716.709,158.169C715.597,158.565 714.399,158.782 713.152,158.786L713.117,158.786C713.117,158.786 703.3,158.786 703.3,158.786C703.3,158.786 716.872,162.423 716.872,162.423C719.572,163.146 722.352,161.541 723.075,158.841C723.075,158.841 744.544,78.719 744.544,78.719C745.268,76.018 743.663,73.238 740.962,72.515L723.838,67.926ZM713.154,153.786L713.117,153.786L644.389,153.786C641.231,153.786 638.668,151.223 638.668,148.065C638.668,148.065 638.668,57.927 638.668,57.927C638.668,54.77 641.231,52.206 644.389,52.206C644.389,52.206 713.117,52.206 713.117,52.206C716.275,52.206 718.838,54.77 718.838,57.927L718.838,148.065C718.838,151.211 716.295,153.766 713.154,153.786ZM644.631,151.408L663.733,151.408C665.113,151.408 666.233,150.287 666.233,148.908C666.233,147.528 665.113,146.408 663.733,146.408L644.631,146.408C643.251,146.408 642.131,147.528 642.131,148.908C642.131,150.287 643.251,151.408 644.631,151.408ZM644.631,144.267L682.836,144.267C684.215,144.267 685.336,143.147 685.336,141.767C685.336,140.387 684.215,139.267 682.836,139.267L644.631,139.267C643.251,139.267 642.131,140.387 642.131,141.767C642.131,143.147 643.251,144.267 644.631,144.267ZM644.631,137.655L710.076,137.655C711.456,137.655 712.576,136.535 712.576,135.155C712.576,133.776 711.456,132.655 710.076,132.655L644.631,132.655C643.251,132.655 642.131,133.776 642.131,135.155C642.131,136.535 643.251,137.655 644.631,137.655ZM715.375,64.492C715.375,59.477 711.303,55.405 706.288,55.405L651.218,55.405C646.203,55.405 642.131,59.477 642.131,64.492L642.131,120.343C642.131,125.359 646.203,129.431 651.218,129.431L706.288,129.431C711.303,129.431 715.375,125.359 715.375,120.343L715.375,64.492ZM710.375,64.492L710.375,120.343C710.375,122.599 708.544,124.431 706.288,124.431C706.288,124.431 651.218,124.431 651.218,124.431C648.962,124.431 647.131,122.599 647.131,120.343C647.131,120.343 647.131,64.492 647.131,64.492C647.131,62.236 648.962,60.405 651.218,60.405C651.218,60.405 706.288,60.405 706.288,60.405C708.544,60.405 710.375,62.236 710.375,64.492ZM661.177,78.645C662.126,77.581 663.359,76.755 664.817,76.309C670.397,74.606 673.304,77.436 676.92,81.333C677.393,81.843 678.057,82.132 678.753,82.132C679.449,82.132 680.113,81.843 680.586,81.333C684.202,77.436 687.109,74.606 692.689,76.309C698.547,78.098 700.714,85.928 695.718,90.963C691.512,95.203 682.559,104.196 678.753,108.018C674.947,104.196 665.994,95.203 661.788,90.963C659.871,89.031 658.995,86.706 658.993,84.453C658.991,83.073 657.87,81.954 656.49,81.955C655.111,81.956 653.991,83.077 653.993,84.457C653.996,87.92 655.292,91.515 658.239,94.485C663.664,99.953 676.982,113.325 676.982,113.325C677.451,113.796 678.088,114.061 678.753,114.061C679.418,114.061 680.055,113.796 680.524,113.325C680.524,113.325 693.842,99.953 699.267,94.485C707.121,86.57 703.357,74.339 694.149,71.527C687.278,69.429 683.102,71.738 678.753,76.032C674.404,71.738 670.228,69.429 663.357,71.527C660.989,72.25 658.986,73.589 657.445,75.318C656.527,76.348 656.617,77.929 657.647,78.847C658.677,79.766 660.259,79.675 661.177,78.645Z" style="fill:rgb(46,53,79);"/>
        </g>
    </g>
</svg>
