<?xml version="1.0" encoding="UTF-8" standalone="no"?>
<!DOCTYPE svg PUBLIC "-//W3C//DTD SVG 1.1//EN" "http://www.w3.org/Graphics/SVG/1.1/DTD/svg11.dtd">
<svg width="100%" height="100%" viewBox="0 0 51 51" version="1.1" xmlns="http://www.w3.org/2000/svg" xmlns:xlink="http://www.w3.org/1999/xlink" xml:space="preserve" xmlns:serif="http://www.serif.com/" style="fill-rule:evenodd;clip-rule:evenodd;stroke-linejoin:round;stroke-miterlimit:2;">
    <g transform="matrix(1,0,0,1,-81,-71)">
        <g transform="matrix(0.428498,0,0,0.451164,46.3842,50.355)">
            <path d="M94.12,155.978C94.12,157.355 95.234,158.473 96.611,158.478L184.541,158.786C185.206,158.789 185.844,158.526 186.315,158.057C186.785,157.588 187.05,156.951 187.05,156.286L187.05,101.709C187.05,101.709 195.348,101.709 195.348,101.709C196.387,101.709 197.317,101.067 197.686,100.097C198.054,99.126 197.785,98.029 197.008,97.339L142.09,48.592C141.155,47.762 139.751,47.751 138.802,48.565L82.033,97.312C81.24,97.994 80.954,99.097 81.318,100.077C81.681,101.058 82.616,101.709 83.662,101.709L94.12,101.709C94.12,101.709 94.12,155.978 94.12,155.978ZM154.717,153.682L182.05,153.778L182.05,99.209C182.05,97.828 183.169,96.709 184.55,96.709C184.55,96.709 188.766,96.709 188.766,96.709C188.766,96.709 140.404,53.781 140.404,53.781C140.404,53.781 90.411,96.709 90.411,96.709L96.62,96.709C98.001,96.709 99.12,97.828 99.12,99.209L99.12,153.487L124.293,153.575L124.293,125.557C124.293,124.177 125.412,123.057 126.793,123.057L152.217,123.057C153.598,123.057 154.717,124.177 154.717,125.557L154.717,153.682ZM129.293,153.593L149.717,153.664L149.717,128.057C149.717,128.057 129.293,128.057 129.293,128.057L129.293,153.593ZM124.894,85.981C125.653,85.13 126.639,84.469 127.805,84.113C132.364,82.721 134.719,85.081 137.673,88.265C138.146,88.775 138.81,89.064 139.505,89.064C140.201,89.064 140.865,88.775 141.338,88.265C144.292,85.081 146.646,82.721 151.205,84.113C155.914,85.551 157.629,91.851 153.612,95.899C150.144,99.395 142.867,106.705 139.505,110.081C136.144,106.705 128.867,99.395 125.398,95.899C123.852,94.34 123.141,92.466 123.139,90.649C123.138,89.269 122.017,88.15 120.637,88.151C119.257,88.153 118.138,89.274 118.139,90.654C118.142,93.681 119.273,96.825 121.849,99.421C126.447,104.054 137.734,115.388 137.734,115.388C138.203,115.859 138.84,116.124 139.505,116.124C140.17,116.124 140.807,115.859 141.277,115.388C141.277,115.388 152.564,104.054 157.162,99.421C164.036,92.493 160.724,81.791 152.665,79.331C146.817,77.545 143.204,79.405 139.505,82.98C135.806,79.405 132.194,77.545 126.345,79.331C124.269,79.964 122.513,81.138 121.162,82.654C120.243,83.684 120.334,85.265 121.364,86.184C122.394,87.102 123.976,87.011 124.894,85.981Z" style="fill:rgb(46,53,79);"/>
        </g>
    </g>
</svg>
