<?xml version="1.0" encoding="UTF-8" standalone="no"?>
<!DOCTYPE svg PUBLIC "-//W3C//DTD SVG 1.1//EN" "http://www.w3.org/Graphics/SVG/1.1/DTD/svg11.dtd">
<svg width="100%" height="100%" viewBox="0 0 61 61" version="1.1" xmlns="http://www.w3.org/2000/svg" xmlns:xlink="http://www.w3.org/1999/xlink" xml:space="preserve" xmlns:serif="http://www.serif.com/" style="fill-rule:evenodd;clip-rule:evenodd;stroke-linejoin:round;stroke-miterlimit:2;">
    <g transform="matrix(1,0,0,1,-479,-263)">
        <g transform="matrix(1,0,0,1,366.35,246.078)">
            <g transform="matrix(3.51675,0,0,3.51675,-1351.96,-869.723)">
                <path d="M428.501,269.271L421.656,269.271C418.817,269.271 416.507,266.961 416.507,264.121L416.507,257.277C416.507,254.437 418.817,252.127 421.656,252.127L428.501,252.127C431.341,252.127 433.65,254.437 433.65,257.277L433.65,264.121C433.65,266.961 431.341,269.271 428.501,269.271ZM421.656,253.74C419.706,253.74 418.12,255.326 418.12,257.277L418.12,264.121C418.12,266.072 419.706,267.658 421.656,267.658L428.501,267.658C430.451,267.658 432.038,266.072 432.038,264.121L432.038,257.277C432.038,255.326 430.451,253.74 428.501,253.74L421.656,253.74ZM425.149,256.477C422.821,256.477 420.927,258.37 420.927,260.698C420.927,263.027 422.821,264.921 425.149,264.921C427.477,264.921 429.371,263.027 429.371,260.698C429.371,258.37 427.477,256.477 425.149,256.477ZM425.149,263.403C423.658,263.403 422.445,262.19 422.445,260.698C422.445,259.207 423.658,257.994 425.149,257.994C426.64,257.994 427.853,259.207 427.853,260.698C427.853,262.19 426.64,263.403 425.149,263.403ZM429.617,255.188C429.062,255.188 428.612,255.638 428.612,256.193C428.612,256.748 429.062,257.198 429.617,257.198C430.173,257.198 430.623,256.748 430.623,256.193C430.623,255.638 430.173,255.188 429.617,255.188Z" style="fill:white;fill-rule:nonzero;"/>
            </g>
        </g>
    </g>
</svg>
