<?xml version="1.0" encoding="UTF-8" standalone="no"?>
<!DOCTYPE svg PUBLIC "-//W3C//DTD SVG 1.1//EN" "http://www.w3.org/Graphics/SVG/1.1/DTD/svg11.dtd">
<svg width="100%" height="100%" viewBox="0 0 37 55" version="1.1" xmlns="http://www.w3.org/2000/svg" xmlns:xlink="http://www.w3.org/1999/xlink" xml:space="preserve" xmlns:serif="http://www.serif.com/" style="fill-rule:evenodd;clip-rule:evenodd;stroke-linejoin:round;stroke-miterlimit:2;">
    <g transform="matrix(1,0,0,1,-104,-314)">
        <path d="M127.751,362.192C126.384,363.639 125.203,364.788 124.383,365.557C123.814,366.092 123.128,366.375 122.4,366.375C121.871,366.375 121.075,366.219 120.291,365.479C119.489,364.724 118.34,363.604 117.006,362.192C114.166,362.786 112.277,363.843 112.277,365.041C112.277,366.901 116.799,368.41 122.379,368.41C127.957,368.41 132.479,366.901 132.479,365.041C132.479,363.843 130.591,362.786 127.751,362.192ZM119.084,361.861L119.086,361.861C119.204,361.983 119.319,362.1 119.432,362.217C119.451,362.236 119.469,362.251 119.488,362.27L119.836,362.626L120.956,363.726C120.984,363.755 121.014,363.78 121.042,363.809C121.096,363.862 121.148,363.911 121.2,363.96C121.224,363.984 121.248,364.009 121.273,364.028C121.344,364.096 121.412,364.164 121.478,364.223C121.551,364.291 121.626,364.354 121.701,364.403C121.724,364.422 121.75,364.432 121.775,364.447C121.824,364.481 121.874,364.51 121.924,364.534C121.955,364.549 121.985,364.554 122.016,364.568C122.061,364.583 122.107,364.602 122.153,364.612C122.184,364.622 122.217,364.627 122.249,364.627C122.292,364.637 122.336,364.641 122.379,364.646L122.4,364.646C122.433,364.646 122.466,364.641 122.5,364.637C122.53,364.632 122.561,364.632 122.591,364.627C122.633,364.617 122.675,364.602 122.717,364.593C122.744,364.583 122.773,364.573 122.8,364.564C122.846,364.544 122.892,364.515 122.937,364.491C122.959,364.476 122.981,364.466 123.003,364.456C123.07,364.408 123.135,364.359 123.199,364.296L123.662,363.858C123.675,363.848 123.687,363.833 123.701,363.819C123.963,363.57 124.259,363.283 124.584,362.957C124.588,362.957 124.592,362.952 124.594,362.947C124.917,362.631 125.266,362.275 125.639,361.891L125.671,361.861C130.952,356.418 140.729,344.855 140.729,333.862C140.729,323.365 132.104,314.854 122.379,314.854C112.653,314.854 104.028,323.365 104.028,333.862C104.028,344.855 113.803,356.413 119.084,361.861ZM112.503,333.453C112.503,328 116.924,323.579 122.379,323.579C127.831,323.579 132.252,328 132.252,333.453C132.252,338.906 127.831,343.326 122.379,343.326C116.924,343.326 112.503,338.906 112.503,333.453ZM128.333,333.453C128.333,330.162 125.666,327.498 122.379,327.498C119.09,327.498 116.424,330.162 116.424,333.453C116.424,336.739 119.09,339.407 122.379,339.407C125.666,339.407 128.333,336.739 128.333,333.453Z" style="fill:rgb(255,255,255);fill-rule:nonzero;"/>
    </g>
</svg>
