<?xml version="1.0" encoding="UTF-8" standalone="no"?>
<svg
   xmlns:dc="http://purl.org/dc/elements/1.1/"
   xmlns:cc="http://creativecommons.org/ns#"
   xmlns:rdf="http://www.w3.org/1999/02/22-rdf-syntax-ns#"
   xmlns:svg="http://www.w3.org/2000/svg"
   xmlns="http://www.w3.org/2000/svg"
   xmlns:sodipodi="http://sodipodi.sourceforge.net/DTD/sodipodi-0.dtd"
   xmlns:inkscape="http://www.inkscape.org/namespaces/inkscape"
   width="100%"
   height="100%"
   viewBox="0 0 61 40"
   version="1.1"
   xml:space="preserve"
   style="fill-rule:evenodd;clip-rule:evenodd;stroke-linejoin:round;stroke-miterlimit:2;"
   id="svg8"
   sodipodi:docname="Message.svg"
   inkscape:version="0.92.3 (2405546, 2018-03-11)"><metadata
   id="metadata14"><rdf:RDF><cc:Work
       rdf:about=""><dc:format>image/svg+xml</dc:format><dc:type
         rdf:resource="http://purl.org/dc/dcmitype/StillImage" /></cc:Work></rdf:RDF></metadata><defs
   id="defs12" /><sodipodi:namedview
   pagecolor="#ffffff"
   bordercolor="#666666"
   borderopacity="1"
   objecttolerance="10"
   gridtolerance="10"
   guidetolerance="10"
   inkscape:pageopacity="0"
   inkscape:pageshadow="2"
   inkscape:window-width="1366"
   inkscape:window-height="703"
   id="namedview10"
   showgrid="false"
   inkscape:zoom="4.8688525"
   inkscape:cx="7.9074074"
   inkscape:cy="20"
   inkscape:window-x="0"
   inkscape:window-y="0"
   inkscape:window-maximized="1"
   inkscape:current-layer="svg8" />
    <g
   transform="matrix(1,0,0,1,-92,-522)"
   id="g6"
   style="fill:#ffffff">
        <g
   transform="matrix(0.602978,0,0,0.602978,-73.2751,312.453)"
   id="g4"
   style="fill:#ffffff">
            <path
   d="M320.465,383.819L276.22,409.904C277.391,411.96 279.579,413.367 282.118,413.367L366.839,413.367C369.593,413.367 371.95,411.723 373.026,409.371L329.687,383.819L325.077,386.535L320.465,383.819ZM275.493,408.093L318.56,382.694L275.302,357.19L275.302,406.548C275.302,407.076 275.378,407.595 275.493,408.093ZM373.655,406.547L373.655,357.898L331.593,382.694L373.563,407.45C373.603,407.151 373.655,406.857 373.655,406.547ZM282.119,347.928C278.352,347.928 275.302,350.973 275.302,354.737L275.302,354.946L325.078,384.286L373.656,355.647L373.656,354.737C373.656,350.973 370.604,347.928 366.839,347.928L282.119,347.928Z"
   style="fill:#ffffff;fill-rule:nonzero"
   id="path2" />
        </g>
    </g>
</svg>