<?xml version="1.0" encoding="UTF-8" standalone="no"?>
<!DOCTYPE svg PUBLIC "-//W3C//DTD SVG 1.1//EN" "http://www.w3.org/Graphics/SVG/1.1/DTD/svg11.dtd">
<svg width="100%" height="100%" viewBox="0 0 51 51" version="1.1" xmlns="http://www.w3.org/2000/svg" xmlns:xlink="http://www.w3.org/1999/xlink" xml:space="preserve" xmlns:serif="http://www.serif.com/" style="fill-rule:evenodd;clip-rule:evenodd;stroke-linejoin:round;stroke-miterlimit:2;">
    <g transform="matrix(1,0,0,1,-278,-71)">
        <g transform="matrix(0.448109,0,0,0.448109,60.1259,50.8401)">
            <path d="M553.051,142.737C555.385,144.761 562.211,147.81 569.838,147.372C573.147,151.935 576.205,154.469 582.527,155.781C586.491,156.604 594.724,156.054 598.422,153.838C599.027,153.475 599.327,152.755 599.379,152.051C599.431,151.346 599.183,150.653 598.696,150.141L585.251,136.021C593.936,128.085 599.386,116.67 599.386,103.992C599.386,75.06 580.656,62.29 569.963,60.689C561.132,52.332 549.218,47.206 536.116,47.206C508.928,47.206 486.854,69.28 486.854,96.468C486.854,110.997 493.157,124.065 503.178,133.087L503.178,133.087L487.544,149.505C487.057,150.017 486.809,150.71 486.861,151.415C486.914,152.119 487.261,152.768 487.819,153.202C487.819,153.202 495.701,159.399 507.394,158.737C514.783,158.319 523.771,155.185 533.185,145.729C533.184,145.73 536.116,145.73 536.116,145.73C542.065,145.73 547.769,144.673 553.051,142.737ZM567.248,65.018C559.25,57.099 548.25,52.206 536.116,52.206C511.687,52.206 491.854,72.039 491.854,96.468C491.854,110.398 498.304,122.833 508.379,130.951C508.923,131.39 509.259,132.036 509.305,132.733C509.351,133.431 509.102,134.116 508.62,134.622C508.62,134.622 493.287,150.725 493.287,150.725C496.022,152.164 500.928,154.095 507.111,153.745C513.771,153.368 521.828,150.322 530.333,141.495C530.805,141.006 531.455,140.73 532.134,140.73L536.116,140.73C551.956,140.73 565.863,132.391 573.684,119.87L573.688,119.863C583.475,102.48 581.067,78.699 567.248,65.018ZM594.386,103.992C594.386,88.1 589.155,75.895 576.455,68.201C590.925,91.211 585.613,118.371 569.568,132.617L569.566,132.618C566.461,135.494 562.984,137.975 559.215,139.981C560.861,141.657 567.238,142.78 570.887,142.372C571.562,142.296 572.283,142.591 572.687,143.137C575.865,147.431 578.336,150.505 583.335,151.548C586.02,152.108 589.442,151.765 592.931,151.337L579.815,137.564C579.333,137.057 579.085,136.373 579.131,135.675C579.177,134.978 579.513,134.332 580.057,133.893C588.793,126.853 594.386,116.071 594.386,103.992ZM511.132,79.961C512.55,78.371 514.393,77.137 516.572,76.471C524.678,73.996 528.95,77.987 534.203,83.648C534.676,84.158 535.34,84.448 536.036,84.448C536.731,84.448 537.395,84.158 537.868,83.648C543.121,77.987 547.394,73.996 555.5,76.471C564.197,79.127 567.481,90.738 560.064,98.214C554.009,104.315 540.813,117.57 536.036,122.368C531.258,117.57 518.062,104.315 512.008,98.214C509.174,95.357 507.888,91.916 507.885,88.586C507.884,87.206 506.763,86.087 505.383,86.088C504.003,86.089 502.884,87.21 502.885,88.59C502.889,93.13 504.595,97.842 508.459,101.735C515.928,109.263 534.264,127.675 534.264,127.675C534.734,128.146 535.371,128.411 536.036,128.411C536.701,128.411 537.338,128.146 537.807,127.675C537.807,127.675 556.144,109.263 563.613,101.735C573.888,91.38 569.007,75.368 556.96,71.689C547.561,68.819 542.001,72.255 536.036,78.323C530.071,72.255 524.511,68.819 515.111,71.689C512.023,72.632 509.409,74.38 507.399,76.634C506.481,77.664 506.572,79.246 507.602,80.164C508.632,81.082 510.213,80.991 511.132,79.961Z" style="fill:rgb(46,53,79);"/>
        </g>
    </g>
</svg>
