<svg xmlns="http://www.w3.org/2000/svg" width="105.169" height="107.372" viewBox="0 0 105.169 107.372">
    <defs>
        <style>
            .cls-1,.cls-2{fill: white}.cls-1{stroke:white;stroke-width:.5px}
        </style>
    </defs>
    <g id="save_the_date_hijab_1" transform="translate(-1246.646 -958.6)">
        <g id="Group_11558" transform="translate(1275.52 982.203)">
            <g id="Group_11552">
                <path id="Path_93878" d="M1270.5 1004.988a1.765 1.765 0 0 1-1.171-.315 1.616 1.616 0 0 1-.45-.54q-.764-1.757 3.423-5.854a.434.434 0 0 1 .63 0 .443.443 0 0 1 0 .676 23.668 23.668 0 0 0-1.982 2.184 10.442 10.442 0 0 0-.968 1.441 2.088 2.088 0 0 0-.292.855v.338a.418.418 0 0 0 .338.27 2.532 2.532 0 0 0 .473.046 4.848 4.848 0 0 0 1.8-.427 11.223 11.223 0 0 0 2.025-1.1 9.352 9.352 0 0 0 3.467-4.1 3.383 3.383 0 0 0-.946-3.917 9.352 9.352 0 0 0-2.093-1.621q-1.239-.72-2.5-1.441-1.171-.63-2.184-1.238a11.872 11.872 0 0 1-1.779-1.283q-1.8-1.621-1.126-3.376a9.871 9.871 0 0 1 1.509-2.725 14.8 14.8 0 0 1 2.115-2.206 16.27 16.27 0 0 1 2.409-1.688q1.259-.72 2.387-1.261a27.485 27.485 0 0 1 5.628-1.914 21.6 21.6 0 0 1 4.232-.562q2.2-.045 2.521.811a.853.853 0 0 1 .021.517 1.6 1.6 0 0 1-.473.7c-.21.21-.42.2-.63-.046a.394.394 0 0 1 0-.63l.136-.135.089-.091a2.574 2.574 0 0 0-.315-.112 4.789 4.789 0 0 0-.856-.112 7.694 7.694 0 0 0-1.3.023q-.722.068-1.531.2a26.3 26.3 0 0 0-4.5 1.149 29.472 29.472 0 0 0-4.187 1.824 20.25 20.25 0 0 0-3.917 2.837 10.368 10.368 0 0 0-2.476 3.692 2.152 2.152 0 0 0 .9 2.432 9.116 9.116 0 0 0 1.643 1.193q.969.564 2.094 1.193 1.305.767 2.611 1.532a10.862 10.862 0 0 1 2.206 1.665 4.744 4.744 0 0 1 1.352 2.206 4.019 4.019 0 0 1-.226 2.7 8.47 8.47 0 0 1-1.462 2.453 11.506 11.506 0 0 1-2.274 2.049 13.927 13.927 0 0 1-2.319 1.238 5.467 5.467 0 0 1-2.052.47z" class="cls-1" transform="translate(-1266.983 -975.224)"/>
                <path id="Path_93879" d="M1293.551 987.473q.315.36.045.63-.047.089-.7.877t-1.62 1.756a19.173 19.173 0 0 1-2.117 1.823 6.459 6.459 0 0 1-2.184 1.126.882.882 0 0 1-.292.045h-.247a1.218 1.218 0 0 1-.9-.315 1.5 1.5 0 0 1-.36-1.283 15.163 15.163 0 0 1 .271-1.644l.18-.72-.676.72a13.853 13.853 0 0 1-.946 1.036 10.055 10.055 0 0 1-1.192 1.014 8.128 8.128 0 0 1-1.4.809 3.7 3.7 0 0 1-1.553.338q-.856.047-1.1-.383a2.41 2.41 0 0 1-.292-.652 3.616 3.616 0 0 1 .315-1.418 11.3 11.3 0 0 1 1.711-2.679 11.531 11.531 0 0 1 .788-.968q.428-.473.788-.877a5.447 5.447 0 0 1 .945-.767l.361-.18a1.6 1.6 0 0 1 1.487.5 2.107 2.107 0 0 1 .314.767 2.442 2.442 0 0 1-.225 1.44.391.391 0 0 1-.585.226c-.3-.119-.391-.315-.271-.585.271-.571.3-.991.091-1.261a.558.558 0 0 0-.63-.18 4.11 4.11 0 0 0-.9.765 19.347 19.347 0 0 0-1.576 1.846 11.255 11.255 0 0 0-1.4 2.184 2.647 2.647 0 0 0-.317 1.149.5.5 0 0 0 .091.135.739.739 0 0 0 .359.046 3.229 3.229 0 0 0 1.329-.293 5.626 5.626 0 0 0 1.215-.744 10.362 10.362 0 0 0 1.036-.944q.473-.5.878-.946.63-.63 1.036-.991a.717.717 0 0 1 .809-.18c.36.091.511.4.451.946l-.226 1.08c-.061.24-.112.473-.157.7s-.082.443-.112.652a1.463 1.463 0 0 0 0 .541.288.288 0 0 0 .135.18q.089.134.54 0a9.755 9.755 0 0 0 3.962-2.793q.5-.494.879-.9c.254-.27.487-.524.7-.765.24-.27.45-.524.63-.765a.306.306 0 0 1 .293-.18.6.6 0 0 1 .339.082z" class="cls-1" transform="translate(-1262.165 -970.811)"/>
                <path id="Path_93880" d="M1299.295 983c.33-.061.5.075.5.4a.311.311 0 0 1-.091.315.668.668 0 0 1-.314.18 4.948 4.948 0 0 0-2.455 1.44 26.257 26.257 0 0 0-3.4 3.919q-.722.99-1.374 1.935t-1.125 1.689q-.473.741-1.014 1.688a.439.439 0 0 1-.4.224.1.1 0 0 1-.068-.021.088.088 0 0 0-.067-.023q-.406-.136-.315-.5c.028-.24.074-.51.135-.811a4.394 4.394 0 0 0 .112-.833c.014-.315.037-.652.068-1.012q.134-2.745-.5-3.512a.818.818 0 0 0-.586-.27.451.451 0 0 1 0-.9 1.5 1.5 0 0 1 1.26.586q.9 1.124.721 4.141a3.734 3.734 0 0 1-.045.676q.5-.765 1.126-1.688t1.35-1.914a32.509 32.509 0 0 1 3.243-3.782 5.587 5.587 0 0 1 3.239-1.927z" class="cls-1" transform="translate(-1258.183 -971.966)"/>
                <path id="Path_93881" d="M1297.877 993.94a4.858 4.858 0 0 1-2.7-.608 2.457 2.457 0 0 1-1.1-1.531 3.565 3.565 0 0 1 .226-2.049 7.1 7.1 0 0 1 1.282-2.117 8.87 8.87 0 0 1 2-1.709 6.146 6.146 0 0 1 2.453-.9 2.151 2.151 0 0 1 1.171.226.569.569 0 0 1 .27.562 1.65 1.65 0 0 1-.315.721c-.18.254-.361.5-.54.743a9.266 9.266 0 0 1-1.082 1.17 11.582 11.582 0 0 1-1.441 1.149 11.259 11.259 0 0 1-1.531.877 4.008 4.008 0 0 1-1.441.406h-.044a1.718 1.718 0 0 0 .473 1.531 3.141 3.141 0 0 0 2.273.63 4.238 4.238 0 0 0 2.341-.811 14.105 14.105 0 0 0 2.341-1.981 21.778 21.778 0 0 0 1.576-1.644 6.834 6.834 0 0 0 .63-.788.382.382 0 0 1 .293-.158.392.392 0 0 1 .338.114.379.379 0 0 1 .046.63 7.152 7.152 0 0 1-.631.788 22.779 22.779 0 0 1-1.621 1.688 15.157 15.157 0 0 1-2.723 2.184 4.977 4.977 0 0 1-2.544.877zm2.161-8.059a5.1 5.1 0 0 0-1.4.518 6.905 6.905 0 0 0-1.373.967 8.165 8.165 0 0 0-1.149 1.261 6.185 6.185 0 0 0-.765 1.352 6.345 6.345 0 0 0 .765-.248 5.328 5.328 0 0 0 .9-.473 9.241 9.241 0 0 0 1.283-.9 11.86 11.86 0 0 0 1.148-1.08 5.555 5.555 0 0 0 .7-.946 1.325 1.325 0 0 0 .157-.4.209.209 0 0 1-.089-.023.454.454 0 0 0-.177-.028z" class="cls-1" transform="translate(-1255.64 -971.11)"/>
            </g>
            <g id="Group_11553" transform="translate(5.786 29.354)">
                <path id="Path_93882" d="M1285.885 1021.149a12.93 12.93 0 0 1-2.274 2.184 4.954 4.954 0 0 1-2.252 1.014 2.322 2.322 0 0 1-1.89-.586 4.556 4.556 0 0 1-1.194-2.656c-.03-.21-.068-.48-.112-.809s-.084-.676-.112-1.036-.054-.72-.068-1.08-.023-.676-.023-.946q-1.08 1.712-2.115 3.062a18.356 18.356 0 0 1-1.238 1.485 8.532 8.532 0 0 1-.9.833 2.348 2.348 0 0 1-.653.382 1.453 1.453 0 0 1-.45.091h-.089q-.9 0-1.149-.429a2.425 2.425 0 0 1-.292-.652 3.471 3.471 0 0 1 .5-1.959 14.643 14.643 0 0 1 1.08-1.779c.151-.209.331-.457.541-.743a8.635 8.635 0 0 1 .674-.811 6.706 6.706 0 0 1 .7-.652 2.052 2.052 0 0 1 .608-.361 1.248 1.248 0 0 1 .855.021 1.839 1.839 0 0 1 .451.294 1.72 1.72 0 0 1 .4 1.261l1.261-1.937.09-.811a7.372 7.372 0 0 1 .136-.811q.313-1.71.809-3.579t1.171-3.849q.541-1.531 1.216-3.175t1.373-3.062a22.91 22.91 0 0 1 1.4-2.476 5 5 0 0 1 1.328-1.464.925.925 0 0 1 .7-.2 1.381 1.381 0 0 1 .427.158q.9.675 0 3.737-.4 1.261-1.08 2.9t-1.576 3.488q-.9 1.846-1.959 3.85t-2.184 3.94a8.247 8.247 0 0 1-.494.855q-.273.4-.5.765l-.091.991a10.2 10.2 0 0 0 0 1.35q.045.722.114 1.418t.179 1.306c.075.4.142.728.2.968a2.524 2.524 0 0 0 .991 1.643 1.609 1.609 0 0 0 1.4.045 5.827 5.827 0 0 0 1.621-1.012 17.4 17.4 0 0 0 1.62-1.555q.765-.833 1.418-1.575t1.014-1.1a.38.38 0 0 1 .292-.159.394.394 0 0 1 .338.114.379.379 0 0 1 .045.63 7.28 7.28 0 0 1-.632.788 22.725 22.725 0 0 1-1.625 1.691zm-9.636-2.926a.451.451 0 0 1-.315-.586 1.092 1.092 0 0 0-.09-.99.309.309 0 0 0-.226-.091.5.5 0 0 0-.224.046 2.608 2.608 0 0 0-.744.608 14.716 14.716 0 0 0-1.328 1.6 12.675 12.675 0 0 0-1.059 1.823 2.2 2.2 0 0 0-.292 1.238c.03.061.068.128.114.2s.2.112.473.112a.773.773 0 0 0 .2-.067 2.982 2.982 0 0 0 .474-.293 5.259 5.259 0 0 0 .764-.721q.452-.494 1.126-1.35zm6.034-14.5a47.942 47.942 0 0 0-1.756 4.908q-.722 2.432-1.171 4.637 1.082-1.891 2.117-3.828t1.891-3.737q.854-1.8 1.508-3.376a29.52 29.52 0 0 0 1.014-2.791 8.4 8.4 0 0 0 .473-2.14 2.391 2.391 0 0 0-.068-.608 3.527 3.527 0 0 0-.45.361 8.22 8.22 0 0 0-1.126 1.531 21.6 21.6 0 0 0-1.192 2.252q-.612 1.307-1.241 2.793z" class="cls-1" transform="translate(-1271.058 -995.899)"/>
                <path id="Path_93883" d="M1295.761 1012.009c.209.24.224.45.044.63-.03.06-.263.354-.7.877s-.975 1.112-1.621 1.756a19.159 19.159 0 0 1-2.115 1.823 6.453 6.453 0 0 1-2.185 1.126.883.883 0 0 1-.292.045h-.247a1.215 1.215 0 0 1-.9-.315 1.487 1.487 0 0 1-.361-1.284 15.16 15.16 0 0 1 .27-1.644l.18-.72-.676.72q-.4.5-.944 1.036a10.072 10.072 0 0 1-1.194 1.014 7.953 7.953 0 0 1-1.4.809 3.7 3.7 0 0 1-1.553.338q-.856.047-1.1-.382a2.441 2.441 0 0 1-.292-.653 3.571 3.571 0 0 1 .315-1.418 11.3 11.3 0 0 1 1.711-2.679 11.744 11.744 0 0 1 .788-.968l.788-.877a5.282 5.282 0 0 1 .946-.765l.359-.18a1.59 1.59 0 0 1 1.486.494 2.1 2.1 0 0 1 .315.767 2.446 2.446 0 0 1-.226 1.44.39.39 0 0 1-.585.226c-.3-.119-.39-.315-.27-.585q.4-.856.089-1.261a.557.557 0 0 0-.63-.18 4.146 4.146 0 0 0-.9.765 19.544 19.544 0 0 0-1.576 1.846 11.3 11.3 0 0 0-1.4 2.184 2.657 2.657 0 0 0-.315 1.149.482.482 0 0 0 .089.135.748.748 0 0 0 .36.045 3.21 3.21 0 0 0 1.329-.292 5.708 5.708 0 0 0 1.215-.743 10.368 10.368 0 0 0 1.035-.945c.315-.331.609-.646.879-.946.419-.42.765-.751 1.035-.991a.719.719 0 0 1 .811-.18c.361.091.51.4.45.946l-.224 1.08c-.061.241-.114.473-.157.7s-.084.443-.114.652a1.547 1.547 0 0 0 0 .541.289.289 0 0 0 .136.18q.087.134.539 0a9.781 9.781 0 0 0 3.963-2.791q.494-.5.877-.9c.255-.27.488-.524.7-.765.24-.27.45-.524.63-.765a.306.306 0 0 1 .292-.18.6.6 0 0 1 .346.085z" class="cls-1" transform="translate(-1267.023 -989.865)"/>
                <path id="Path_93884" d="M1298.59 1002.728q1.891-.27 3.737-.473a31.933 31.933 0 0 1 3.467-.2 15.8 15.8 0 0 1 2.926.248 4.905 4.905 0 0 1 2.162.923.45.45 0 1 1-.541.72 4.667 4.667 0 0 0-2.229-.832 17.718 17.718 0 0 0-3.175-.136q-1.755.068-3.737.317t-3.872.517a3.714 3.714 0 0 1-.676.091q-.854 1.891-1.62 3.872t-1.4 3.917a24.552 24.552 0 0 0-1.4 5.943 7.235 7.235 0 0 0 .473 3.917 2.032 2.032 0 0 0 2.32 1.059q1.62-.249 4.232-2.59a22.026 22.026 0 0 0 1.576-1.644 7.07 7.07 0 0 0 .63-.786.38.38 0 0 1 .292-.159.394.394 0 0 1 .338.114.379.379 0 0 1 .044.63 7.238 7.238 0 0 1-.629.788 23.1 23.1 0 0 1-1.622 1.688 14.173 14.173 0 0 1-3.873 2.679 3.89 3.89 0 0 1-2.679.292 2.565 2.565 0 0 1-1.553-1.553 8.068 8.068 0 0 1-.54-2.882 16.776 16.776 0 0 1 .359-3.714 25.757 25.757 0 0 1 1.171-4.052q.675-1.8 1.352-3.67t1.485-3.67q-.63.092-1.352.18c-.48.061-.967.1-1.462.114a6.808 6.808 0 0 1-1.464-.114 3.351 3.351 0 0 1-1.306-.54q-.405-.226-.09-.63.271-.36.585-.091a3.417 3.417 0 0 0 .811.406 2.816 2.816 0 0 0 .991.112q.586-.021 1.464-.135t2.228-.292q.72-1.486 1.418-2.859t1.464-2.59c.331-.479.615-.645.856-.494s.18.525-.18 1.124q-.632 1.037-1.329 2.275t-1.238 2.409z" class="cls-1" transform="translate(-1263.188 -995.399)"/>
                <path id="Path_93885" d="M1300.879 1018.476a4.856 4.856 0 0 1-2.7-.608 2.453 2.453 0 0 1-1.1-1.531 3.575 3.575 0 0 1 .224-2.049 7.1 7.1 0 0 1 1.284-2.117 8.831 8.831 0 0 1 2-1.709 6.17 6.17 0 0 1 2.453-.9 2.148 2.148 0 0 1 1.171.226.568.568 0 0 1 .27.562 1.653 1.653 0 0 1-.315.721c-.179.254-.359.5-.54.743a9.264 9.264 0 0 1-1.08 1.171 11.8 11.8 0 0 1-1.441 1.147 11.494 11.494 0 0 1-1.531.879 4.04 4.04 0 0 1-1.441.4h-.045a1.726 1.726 0 0 0 .473 1.531 3.145 3.145 0 0 0 2.274.63 4.246 4.246 0 0 0 2.341-.809 14.179 14.179 0 0 0 2.341-1.982 22.075 22.075 0 0 0 1.576-1.644 7.07 7.07 0 0 0 .63-.786.379.379 0 0 1 .292-.159.394.394 0 0 1 .338.114.379.379 0 0 1 .044.63 7.126 7.126 0 0 1-.63.788 22.725 22.725 0 0 1-1.62 1.688 15.158 15.158 0 0 1-2.725 2.184 4.976 4.976 0 0 1-2.543.88zm2.161-8.059a5.1 5.1 0 0 0-1.4.518 6.914 6.914 0 0 0-1.373.967 8.167 8.167 0 0 0-1.147 1.261 6.2 6.2 0 0 0-.767 1.352 6.445 6.445 0 0 0 .767-.248 5.225 5.225 0 0 0 .9-.473 9.141 9.141 0 0 0 1.283-.9 11.8 11.8 0 0 0 1.147-1.08 5.48 5.48 0 0 0 .7-.946 1.321 1.321 0 0 0 .158-.4.2.2 0 0 1-.091-.023.454.454 0 0 0-.177-.028z" class="cls-1" transform="translate(-1260.165 -990.165)"/>
            </g>
            <g id="Group_11557" transform="translate(23.894 26.413)">
                <g id="Group_11554">
                    <path id="Path_93886" d="M1285.552 994.461h-1.739l.124-.633h4.214l-.131.633h-1.739l-.9 4.461h-.72z" class="cls-1" transform="translate(-1283.813 -993.828)"/>
                </g>
                <g id="Group_11555" transform="translate(4.112)">
                    <path id="Path_93887" d="M1292.108 993.828l-1.018 5.094h-.728l.452-2.256h-2.926l-.451 2.256h-.727l1.018-5.094h.728l-.437 2.182h2.926l.437-2.182z" class="cls-1" transform="translate(-1286.709 -993.828)"/>
                </g>
                <g id="Group_11556" transform="translate(10.019)">
                    <path id="Path_93888" d="M1292.486 994.461l-.312 1.565h2.561l-.124.619h-2.561l-.328 1.644h2.977l-.124.633h-3.706l1.019-5.094h3.595l-.124.633z" class="cls-1" transform="translate(-1290.87 -993.828)"/>
                </g>
            </g>
        </g>
        <g id="Group_11703" transform="translate(1246.646 958.6)">
            <g id="Group_11560" transform="translate(9.891 10.195)">
                <g id="Group_11559">
                    <path id="Path_93889" d="M1299.342 1057.238a45.729 45.729 0 1 1 45.728-45.728 45.781 45.781 0 0 1-45.728 45.728zm0-90.2a44.466 44.466 0 1 0 44.466 44.467 44.518 44.518 0 0 0-44.466-44.462z" class="cls-2" transform="translate(-1253.613 -965.781)"/>
                </g>
            </g>
            <g id="Group_11631" transform="translate(0 73.9)">
                <g id="Group_11563" transform="translate(2.106 2.029)">
                    <g id="Group_11562">
                        <g id="Group_11561">
                            <path id="Path_93890" d="M1248.163 1012.247a91.639 91.639 0 0 0 18.42 15.925 62.181 62.181 0 0 0 22.076 9.1 49.169 49.169 0 0 0 13.589.637c.458-.043-.082-.342-.314-.319a50.513 50.513 0 0 1-23.456-3.635 74.062 74.062 0 0 1-20.219-12.52 98.836 98.836 0 0 1-9.466-9.25c-.134-.149-.822-.152-.631.061z" class="cls-2" transform="translate(-1248.129 -1012.079)"/>
                        </g>
                    </g>
                </g>
                <g id="Group_11566" transform="translate(6.857 3.974)">
                    <g id="Group_11565">
                        <g id="Group_11564">
                            <path id="Path_93891" d="M1251.483 1013.582a25.916 25.916 0 0 0 .284 3.227c.013.153.195.214.325.234.074.011.39.02.379-.125a25.646 25.646 0 0 1-.284-3.227c.007-.151-.209-.217-.325-.234-.089-.014-.372-.023-.379.125z" class="cls-2" transform="translate(-1251.476 -1013.45)"/>
                        </g>
                    </g>
                </g>
                <g id="Group_11569" transform="translate(4.983 10.756)">
                    <g id="Group_11568">
                        <g id="Group_11567">
                            <path id="Path_93892" d="M1256.2 1018.252a20.187 20.187 0 0 1-5.761.514c-.114 0-.317.044-.282.2s.291.2.413.2a21.28 21.28 0 0 0 6.087-.565c.15-.044.145-.185.042-.274a.564.564 0 0 0-.5-.075z" class="cls-2" transform="translate(-1250.156 -1018.226)"/>
                        </g>
                    </g>
                </g>
                <g id="Group_11572" transform="translate(16.404 5.905)">
                    <g id="Group_11571">
                        <g id="Group_11570">
                            <path id="Path_93893" d="M1258.627 1014.934a19.149 19.149 0 0 0-.364 4.966 14.821 14.821 0 0 0 .189 4.312c.061.213.761.26.691.017a15.285 15.285 0 0 1-.175-4.358 18.238 18.238 0 0 1 .362-4.829c.058-.207-.639-.344-.7-.108z" class="cls-2" transform="translate(-1258.201 -1014.81)"/>
                        </g>
                    </g>
                </g>
                <g id="Group_11575" transform="translate(26.227 11.949)">
                    <g id="Group_11574">
                        <g id="Group_11573">
                            <path id="Path_93894" d="M1266.031 1019.191a17.052 17.052 0 0 0-.906 5.266 17.733 17.733 0 0 0 .849 4.4c.064.213.764.257.692.019a16.85 16.85 0 0 1-.841-4.428 17.585 17.585 0 0 1 .91-5.144c.058-.206-.636-.344-.7-.108z" class="cls-2" transform="translate(-1265.119 -1019.067)"/>
                        </g>
                    </g>
                </g>
                <g id="Group_11578" transform="translate(13.766 18.266)">
                    <g id="Group_11577">
                        <g id="Group_11576">
                            <path id="Path_93895" d="M1263.875 1023.573a13.271 13.271 0 0 1-1.61.9 7.654 7.654 0 0 1-1.865.5 17.019 17.019 0 0 1-3.771.187c-.114-.007-.316.046-.282.195s.292.192.413.2a16.848 16.848 0 0 0 2.141-.031 17.988 17.988 0 0 0 1.912-.186 8 8 0 0 0 1.908-.522 13.973 13.973 0 0 0 1.732-.964c.142-.088.011-.226-.085-.278a.539.539 0 0 0-.493-.006z" class="cls-2" transform="translate(-1256.342 -1023.516)"/>
                        </g>
                    </g>
                </g>
                <g id="Group_11581" transform="translate(27.581 23.897)">
                    <g id="Group_11580">
                        <g id="Group_11579">
                            <path id="Path_93896" d="M1270.6 1027.593a3.981 3.981 0 0 1-.97 1.205c-.321.305-.611.642-.951.926a6.823 6.823 0 0 1-2.488 1.35c-.152.043-.143.19-.042.278a.56.56 0 0 0 .5.077 7.17 7.17 0 0 0 2.608-1.413c.354-.294.652-.642.984-.957a4.181 4.181 0 0 0 1.024-1.256c.129-.282-.558-.44-.663-.21z" class="cls-2" transform="translate(-1266.073 -1027.482)"/>
                        </g>
                    </g>
                </g>
                <g id="Group_11584" transform="translate(28.968 26.789)">
                    <g id="Group_11583">
                        <g id="Group_11582">
                            <path id="Path_93897" d="M1280.213 1029.578a15.889 15.889 0 0 1-6.011 3.356 50.4 50.4 0 0 1-7.044 1.661c-.162.031-.115.142-.034.223a.636.636 0 0 0 .5.077 48.189 48.189 0 0 0 7.315-1.758 16.134 16.134 0 0 0 5.942-3.371c.149-.148-.5-.349-.666-.189z" class="cls-2" transform="translate(-1267.05 -1029.519)"/>
                        </g>
                    </g>
                </g>
                <g id="Group_11587" transform="translate(40.735 21.44)">
                    <g id="Group_11586">
                        <g id="Group_11585">
                            <path id="Path_93898" d="M1275.349 1025.9a30.652 30.652 0 0 0 1.873 2.99 23.8 23.8 0 0 0 2.117 2.845.573.573 0 0 0 .473.135c.1-.016.274-.092.162-.214a22.782 22.782 0 0 1-2.057-2.756 31.109 31.109 0 0 1-1.874-2.986c-.111-.211-.8-.22-.693-.014z" class="cls-2" transform="translate(-1275.338 -1025.752)"/>
                        </g>
                    </g>
                </g>
                <g id="Group_11589" transform="translate(6.439 2.885)">
                    <g id="Group_11588">
                        <path id="Path_93899" d="M1251.71 1014.361a.875.875 0 1 0-.456-1.151.875.875 0 0 0 .456 1.151z" class="cls-2" transform="translate(-1251.182 -1012.682)"/>
                    </g>
                </g>
                <g id="Group_11591" transform="translate(3.806 10.164)">
                    <g id="Group_11590">
                        <path id="Path_93900" d="M1250.038 1020.072a1.18 1.18 0 1 0-.613-1.552 1.18 1.18 0 0 0 .613 1.552z" class="cls-2" transform="translate(-1249.327 -1017.81)"/>
                    </g>
                </g>
                <g id="Group_11593" transform="translate(15.905 4.246)">
                    <g id="Group_11592">
                        <path id="Path_93901" d="M1258.56 1015.9a1.18 1.18 0 1 0-.613-1.552 1.181 1.181 0 0 0 .613 1.552z" class="cls-2" transform="translate(-1257.849 -1013.642)"/>
                    </g>
                </g>
                <g id="Group_11595" transform="translate(13.707 6.578)">
                    <g id="Group_11594">
                        <path id="Path_93902" d="M1256.741 1016.686a.731.731 0 1 0-.38-.961.731.731 0 0 0 .38.961z" class="cls-2" transform="translate(-1256.301 -1015.284)"/>
                    </g>
                </g>
                <g id="Group_11597" transform="translate(22.531 10.82)">
                    <g id="Group_11596">
                        <path id="Path_93903" d="M1262.957 1019.673a.731.731 0 1 0-.381-.961.729.729 0 0 0 .381.961z" class="cls-2" transform="translate(-1262.516 -1018.271)"/>
                    </g>
                </g>
                <g id="Group_11599" transform="translate(32.1 28.049)">
                    <g id="Group_11598">
                        <path id="Path_93904" d="M1269.7 1031.807a.73.73 0 1 0-.381-.96.731.731 0 0 0 .381.96z" class="cls-2" transform="translate(-1269.255 -1030.406)"/>
                    </g>
                </g>
                <g id="Group_11601" transform="translate(15.439 17.609)">
                    <g id="Group_11600">
                        <path id="Path_93905" d="M1257.961 1024.456a.731.731 0 1 0-.381-.961.731.731 0 0 0 .381.961z" class="cls-2" transform="translate(-1257.521 -1023.054)"/>
                    </g>
                </g>
                <g id="Group_11603" transform="translate(1.654 10.374)">
                    <g id="Group_11602">
                        <path id="Path_93906" d="M1248.252 1019.36a.731.731 0 1 0-.38-.961.731.731 0 0 0 .38.961z" class="cls-2" transform="translate(-1247.812 -1017.958)"/>
                    </g>
                </g>
                <g id="Group_11605" transform="translate(3.009)">
                    <g id="Group_11604">
                        <path id="Path_93907" d="M1249.206 1012.053a.731.731 0 1 0-.381-.961.733.733 0 0 0 .381.961z" class="cls-2" transform="translate(-1248.766 -1010.651)"/>
                    </g>
                </g>
                <g id="Group_11607" transform="translate(40.263 18.869)">
                    <g id="Group_11606">
                        <path id="Path_93908" d="M1275.447 1025.343a.731.731 0 1 0-.381-.961.731.731 0 0 0 .381.961z" class="cls-2" transform="translate(-1275.006 -1023.94)"/>
                    </g>
                </g>
                <g id="Group_11609" transform="translate(29.254 28.424)">
                    <g id="Group_11608">
                        <path id="Path_93909" d="M1267.593 1031.76a.568.568 0 1 0-.3-.747.568.568 0 0 0 .3.747z" class="cls-2" transform="translate(-1267.251 -1030.671)"/>
                    </g>
                </g>
                <g id="Group_11611" transform="translate(27.851 13.695)">
                    <g id="Group_11610">
                        <path id="Path_93910" d="M1266.821 1022.072a.926.926 0 1 0-.481-1.217.926.926 0 0 0 .481 1.217z" class="cls-2" transform="translate(-1266.263 -1020.296)"/>
                    </g>
                </g>
                <g id="Group_11613" transform="translate(12.937 18.933)">
                    <g id="Group_11612">
                        <path id="Path_93911" d="M1256.47 1026.249a1.18 1.18 0 1 0-.615-1.552 1.18 1.18 0 0 0 .615 1.552z" class="cls-2" transform="translate(-1255.759 -1023.986)"/>
                    </g>
                </g>
                <g id="Group_11615" transform="translate(26.31 26.298)">
                    <g id="Group_11614">
                        <path id="Path_93912" d="M1265.888 1031.436a1.18 1.18 0 1 0-.614-1.552 1.181 1.181 0 0 0 .614 1.552z" class="cls-2" transform="translate(-1265.177 -1029.173)"/>
                    </g>
                </g>
                <g id="Group_11617" transform="translate(39.067 21.527)">
                    <g id="Group_11616">
                        <path id="Path_93913" d="M1274.623 1027.277a.763.763 0 1 0-.4-1 .764.764 0 0 0 .4 1z" class="cls-2" transform="translate(-1274.163 -1025.813)"/>
                    </g>
                </g>
                <g id="Group_11619" transform="translate(32.067 31.945)">
                    <g id="Group_11618">
                        <path id="Path_93914" d="M1269.693 1034.615a.763.763 0 1 0-.4-1 .763.763 0 0 0 .4 1z" class="cls-2" transform="translate(-1269.233 -1033.151)"/>
                    </g>
                </g>
                <g id="Group_11621" transform="translate(26.726 11.363)">
                    <g id="Group_11620">
                        <path id="Path_93915" d="M1265.931 1020.118a.763.763 0 1 0-.4-1 .762.762 0 0 0 .4 1z" class="cls-2" transform="translate(-1265.471 -1018.654)"/>
                    </g>
                </g>
                <g id="Group_11624" transform="translate(23.083 11.474)">
                    <g id="Group_11623">
                        <g id="Group_11622">
                            <path id="Path_93916" d="M1262.909 1018.8a20.17 20.17 0 0 0 3.4 4.479c.07.077.415.075.317-.035a20 20 0 0 1-3.366-4.435c-.05-.1-.395-.111-.346-.008z" class="cls-2" transform="translate(-1262.905 -1018.732)"/>
                        </g>
                    </g>
                </g>
                <g id="Group_11627" transform="translate(32.668 28.695)">
                    <g id="Group_11626">
                        <g id="Group_11625">
                            <path id="Path_93917" d="M1269.76 1031.017a20.54 20.54 0 0 0 5.634.8c.24.014.091-.161-.07-.17a19.781 19.781 0 0 1-5.446-.768c-.155-.054-.344.061-.118.142z" class="cls-2" transform="translate(-1269.656 -1030.861)"/>
                        </g>
                    </g>
                </g>
                <g id="Group_11630" transform="translate(0 2.789)">
                    <g id="Group_11629">
                        <g id="Group_11628">
                            <path id="Path_93918" d="M1246.687 1012.724a20.266 20.266 0 0 0 5.1 2.387c.112.043.415-.031.2-.112a20.021 20.021 0 0 1-5.036-2.35c-.084-.062-.422-.04-.266.075z" class="cls-2" transform="translate(-1246.646 -1012.615)"/>
                        </g>
                    </g>
                </g>
            </g>
            <g id="Group_11702" transform="translate(74.835)">
                <g id="Group_11634" transform="translate(1.75 1.877)">
                    <g id="Group_11633">
                        <g id="Group_11632">
                            <path id="Path_93919" d="M1300.73 959.949a80.892 80.892 0 0 1 14.561 15.795 54.855 54.855 0 0 1 8.645 19.209 43.39 43.39 0 0 1 .944 11.966c-.026.4-.3-.064-.291-.268a44.551 44.551 0 0 0-3.865-20.581 65.311 65.311 0 0 0-11.608-17.476 87.117 87.117 0 0 0-8.423-8.086c-.135-.114-.156-.721.037-.559z" class="cls-2" transform="translate(-1300.588 -959.922)"/>
                        </g>
                    </g>
                </g>
                <g id="Group_11637" transform="translate(3.601 5.999)">
                    <g id="Group_11636">
                        <g id="Group_11635">
                            <path id="Path_93920" d="M1302 962.843a22.862 22.862 0 0 1 2.852.16c.135.006.194.165.216.28.013.065.028.344-.1.338a22.837 22.837 0 0 0-2.854-.16c-.133.011-.2-.176-.216-.278-.014-.079-.03-.328.1-.339z" class="cls-2" transform="translate(-1301.891 -962.826)"/>
                        </g>
                    </g>
                </g>
                <g id="Group_11640" transform="translate(9.695 4.153)">
                    <g id="Group_11639">
                        <g id="Group_11638">
                            <path id="Path_93921" d="M1306.2 966.876a17.813 17.813 0 0 0 .291-5.094c0-.1.03-.281.168-.254s.185.25.189.358a18.74 18.74 0 0 1-.327 5.382c-.034.134-.159.134-.24.045a.5.5 0 0 1-.081-.437z" class="cls-2" transform="translate(-1306.184 -961.525)"/>
                        </g>
                    </g>
                </g>
                <g id="Group_11643" transform="translate(5.583 14.168)">
                    <g id="Group_11642">
                        <g id="Group_11641">
                            <path id="Path_93922" d="M1303.39 969.164a16.911 16.911 0 0 1 4.369-.461 13.06 13.06 0 0 1 3.808.045c.189.048.25.665.034.609a13.5 13.5 0 0 0-3.849-.031 16.031 16.031 0 0 0-4.247.456c-.182.055-.321-.554-.115-.618z" class="cls-2" transform="translate(-1303.288 -968.579)"/>
                        </g>
                    </g>
                </g>
                <g id="Group_11646" transform="translate(11.203 22.723)">
                    <g id="Group_11645">
                        <g id="Group_11644">
                            <path id="Path_93923" d="M1307.348 975.552a15.053 15.053 0 0 1 4.619-.947 15.693 15.693 0 0 1 3.9.625c.189.051.247.667.034.611a14.817 14.817 0 0 0-3.927-.618 15.532 15.532 0 0 0-4.511.947c-.179.058-.321-.551-.115-.618z" class="cls-2" transform="translate(-1307.246 -974.605)"/>
                        </g>
                    </g>
                </g>
                <g id="Group_11649" transform="translate(16.607 11.654)">
                    <g id="Group_11648">
                        <g id="Group_11647">
                            <path id="Path_93924" d="M1311.1 973.5a11.827 11.827 0 0 0 .751-1.445 6.794 6.794 0 0 0 .392-1.66 15.03 15.03 0 0 0 .058-3.331c-.01-.1.031-.28.163-.254s.177.253.187.359a14.946 14.946 0 0 1 .032 1.888 15.973 15.973 0 0 1-.111 1.691 7.045 7.045 0 0 1-.406 1.7 12.589 12.589 0 0 1-.8 1.555c-.074.128-.2.016-.248-.068a.467.467 0 0 1-.019-.433z" class="cls-2" transform="translate(-1311.052 -966.808)"/>
                        </g>
                    </g>
                </g>
                <g id="Group_11652" transform="translate(21.878 23.623)">
                    <g id="Group_11651">
                        <g id="Group_11650">
                            <path id="Path_93925" d="M1314.856 979.331a3.529 3.529 0 0 0 1.035-.889c.26-.292.548-.557.79-.866a6.006 6.006 0 0 0 1.12-2.23c.034-.135.163-.132.244-.046a.492.492 0 0 1 .083.437 6.351 6.351 0 0 1-1.173 2.34c-.25.319-.547.592-.815.894a3.716 3.716 0 0 1-1.08.938c-.244.121-.4-.48-.2-.579z" class="cls-2" transform="translate(-1314.765 -975.239)"/>
                        </g>
                    </g>
                </g>
                <g id="Group_11655" transform="translate(24.709 24.724)">
                    <g id="Group_11654">
                        <g id="Group_11653">
                            <path id="Path_93926" d="M1316.806 987.765a14.033 14.033 0 0 0 2.79-5.4 44.429 44.429 0 0 0 1.267-6.257c.023-.145.122-.107.2-.037a.56.56 0 0 1 .081.437 42.382 42.382 0 0 1-1.343 6.5 14.235 14.235 0 0 1-2.805 5.334c-.125.135-.322-.434-.185-.582z" class="cls-2" transform="translate(-1316.759 -976.014)"/>
                        </g>
                    </g>
                </g>
                <g id="Group_11658" transform="translate(19.955 35.393)">
                    <g id="Group_11657">
                        <g id="Group_11656">
                            <path id="Path_93927" d="M1313.535 983.538a26.783 26.783 0 0 1 2.69 1.569 20.678 20.678 0 0 1 2.567 1.786.5.5 0 0 1 .132.412c-.01.089-.072.246-.183.149a20.082 20.082 0 0 0-2.488-1.736 27.452 27.452 0 0 0-2.686-1.569c-.189-.091-.217-.7-.033-.611z" class="cls-2" transform="translate(-1313.41 -983.529)"/>
                        </g>
                    </g>
                </g>
                <g id="Group_11660" transform="translate(2.644 5.652)">
                    <g id="Group_11659">
                        <path id="Path_93928" d="M1302.689 963.024a.772.772 0 1 1-1.028-.369.773.773 0 0 1 1.028.369z" class="cls-2" transform="translate(-1301.218 -962.581)"/>
                    </g>
                </g>
                <g id="Group_11662" transform="translate(8.997 3.117)">
                    <g id="Group_11661">
                        <path id="Path_93929" d="M1307.675 961.393a1.041 1.041 0 1 1-1.386-.5 1.043 1.043 0 0 1 1.386.5z" class="cls-2" transform="translate(-1305.693 -960.795)"/>
                    </g>
                </g>
                <g id="Group_11664" transform="translate(4.12 13.952)">
                    <g id="Group_11663">
                        <path id="Path_93930" d="M1304.239 969.025a1.041 1.041 0 1 1-1.384-.5 1.039 1.039 0 0 1 1.384.5z" class="cls-2" transform="translate(-1302.257 -968.427)"/>
                    </g>
                </g>
                <g id="Group_11666" transform="translate(6.102 11.961)">
                    <g id="Group_11665">
                        <path id="Path_93931" d="M1304.881 967.394a.644.644 0 1 1-.858-.308.645.645 0 0 1 .858.308z" class="cls-2" transform="translate(-1303.653 -967.025)"/>
                    </g>
                </g>
                <g id="Group_11668" transform="translate(10.09 19.622)">
                    <g id="Group_11667">
                        <path id="Path_93932" d="M1307.69 972.79a.644.644 0 1 1-.857-.308.644.644 0 0 1 .857.308z" class="cls-2" transform="translate(-1306.462 -972.42)"/>
                    </g>
                </g>
                <g id="Group_11670" transform="translate(25.552 27.575)">
                    <g id="Group_11669">
                        <path id="Path_93933" d="M1318.58 978.392a.644.644 0 1 1-.858-.308.643.643 0 0 1 .858.308z" class="cls-2" transform="translate(-1317.353 -978.023)"/>
                    </g>
                </g>
                <g id="Group_11672" transform="translate(15.877 13.177)">
                    <g id="Group_11671">
                        <path id="Path_93934" d="M1311.767 968.251a.645.645 0 1 1-.859-.308.647.647 0 0 1 .859.308z" class="cls-2" transform="translate(-1310.539 -967.882)"/>
                    </g>
                </g>
                <g id="Group_11674" transform="translate(9.109 1.226)">
                    <g id="Group_11673">
                        <path id="Path_93935" d="M1307 959.833a.645.645 0 1 1-.859-.308.646.646 0 0 1 .859.308z" class="cls-2" transform="translate(-1305.771 -959.464)"/>
                    </g>
                </g>
                <g id="Group_11676" transform="translate(0 2.712)">
                    <g id="Group_11675">
                        <path id="Path_93936" d="M1300.583 960.88a.644.644 0 1 1-.858-.308.645.645 0 0 1 .858.308z" class="cls-2" transform="translate(-1299.356 -960.51)"/>
                    </g>
                </g>
                <g id="Group_11678" transform="translate(17.687 35.032)">
                    <g id="Group_11677">
                        <path id="Path_93937" d="M1313.041 983.644a.644.644 0 1 1-.858-.308.643.643 0 0 1 .858.308z" class="cls-2" transform="translate(-1311.814 -983.274)"/>
                    </g>
                </g>
                <g id="Group_11680" transform="translate(25.798 25.059)">
                    <g id="Group_11679">
                        <path id="Path_93938" d="M1318.48 976.537a.5.5 0 1 1-.666-.239.5.5 0 0 1 .666.239z" class="cls-2" transform="translate(-1317.526 -976.25)"/>
                    </g>
                </g>
                <g id="Group_11682" transform="translate(12.781 24.227)">
                    <g id="Group_11681">
                        <path id="Path_93939" d="M1309.913 976.132a.816.816 0 1 1-1.086-.39.818.818 0 0 1 1.086.39z" class="cls-2" transform="translate(-1308.358 -975.664)"/>
                    </g>
                </g>
                <g id="Group_11684" transform="translate(16.987 10.922)">
                    <g id="Group_11683">
                        <path id="Path_93940" d="M1313.3 966.889a1.041 1.041 0 1 1-1.384-.5 1.04 1.04 0 0 1 1.384.5z" class="cls-2" transform="translate(-1311.32 -966.293)"/>
                    </g>
                </g>
                <g id="Group_11686" transform="translate(23.858 22.505)">
                    <g id="Group_11685">
                        <path id="Path_93941" d="M1318.141 975.049a1.041 1.041 0 1 1-1.384-.5 1.041 1.041 0 0 1 1.384.5z" class="cls-2" transform="translate(-1316.159 -974.452)"/>
                    </g>
                </g>
                <g id="Group_11688" transform="translate(19.998 33.9)">
                    <g id="Group_11687">
                        <path id="Path_93942" d="M1314.723 982.864a.673.673 0 1 1-.9-.322.672.672 0 0 1 .9.322z" class="cls-2" transform="translate(-1313.441 -982.478)"/>
                    </g>
                </g>
                <g id="Group_11690" transform="translate(28.988 27.436)">
                    <g id="Group_11689">
                        <path id="Path_93943" d="M1321.055 978.312a.673.673 0 1 1-.9-.322.673.673 0 0 1 .9.322z" class="cls-2" transform="translate(-1319.773 -977.924)"/>
                    </g>
                </g>
                <g id="Group_11692" transform="translate(10.688 23.306)">
                    <g id="Group_11691">
                        <path id="Path_93944" d="M1308.166 975.4a.674.674 0 1 1-.9-.321.674.674 0 0 1 .9.321z" class="cls-2" transform="translate(-1306.883 -975.015)"/>
                    </g>
                </g>
                <g id="Group_11695" transform="translate(10.666 20.11)">
                    <g id="Group_11694">
                        <g id="Group_11693">
                            <path id="Path_93945" d="M1306.928 972.768a17.758 17.758 0 0 1 4.045 2.869c.071.058.079.363-.021.28a17.56 17.56 0 0 0-4.005-2.844c-.092-.041-.109-.345-.018-.305z" class="cls-2" transform="translate(-1306.868 -972.764)"/>
                        </g>
                    </g>
                </g>
                <g id="Group_11698" transform="translate(26.121 28.077)">
                    <g id="Group_11697">
                        <g id="Group_11696">
                            <path id="Path_93946" d="M1317.889 978.466a18.106 18.106 0 0 1 .862 4.945c.02.212-.139.084-.152-.057a17.467 17.467 0 0 0-.83-4.78c-.052-.135.044-.305.121-.108z" class="cls-2" transform="translate(-1317.754 -978.376)"/>
                        </g>
                    </g>
                </g>
                <g id="Group_11701" transform="translate(2.359)">
                    <g id="Group_11700">
                        <g id="Group_11699">
                            <path id="Path_93947" d="M1301.111 958.634a17.893 17.893 0 0 1 2.247 4.432c.04.1-.016.365-.094.179a17.657 17.657 0 0 0-2.213-4.374c-.057-.073-.047-.371.06-.237z" class="cls-2" transform="translate(-1301.017 -958.6)"/>
                        </g>
                    </g>
                </g>
            </g>
        </g>
    </g>
</svg>
