<?xml version="1.0" encoding="UTF-8" standalone="no"?>
<!DOCTYPE svg PUBLIC "-//W3C//DTD SVG 1.1//EN" "http://www.w3.org/Graphics/SVG/1.1/DTD/svg11.dtd">
<svg width="100%" height="100%" viewBox="0 0 81 55" version="1.1" xmlns="http://www.w3.org/2000/svg" xmlns:xlink="http://www.w3.org/1999/xlink" xml:space="preserve" xmlns:serif="http://www.serif.com/" style="fill-rule:evenodd;clip-rule:evenodd;stroke-linejoin:round;stroke-miterlimit:2;">
    <g transform="matrix(1,0,0,1,-82,-449)">
        <path d="M133.229,449.855C132.826,449.855 132.344,449.983 131.829,450.248L108.549,463.417C107.136,464.148 105.979,465.657 105.979,466.771L105.979,486.494C105.979,487.609 107.136,489.119 108.549,489.848L131.829,503.018C132.344,503.283 132.826,503.411 133.229,503.411C133.932,503.411 134.398,503.025 134.398,502.317L134.398,486.035L134.399,467.231L134.399,450.949C134.399,450.24 133.932,449.855 133.229,449.855ZM104.012,488.392L91.398,488.392C88.779,488.392 86.431,487.237 84.833,485.409L84.768,485.394L84.819,485.394C83.655,484.055 82.892,482.357 82.72,480.489L82.685,479.873L82.682,479.678L82.683,473.532L82.697,473.075L82.72,472.776C82.892,470.908 83.655,469.21 84.819,467.872L84.768,467.872L84.833,467.856C86.431,466.028 88.779,464.873 91.398,464.873L104.012,464.873L104.012,488.392ZM145.946,476.633L140.354,482.225C140.028,482.551 140.028,483.079 140.354,483.405C141.344,484.395 143.329,486.381 144.32,487.371C144.645,487.697 145.173,487.697 145.499,487.371L151.092,481.778L156.684,487.371C157.01,487.697 157.538,487.697 157.864,487.371C158.854,486.381 160.84,484.395 161.83,483.405C162.156,483.079 162.156,482.551 161.83,482.225L156.237,476.633L161.83,471.04C162.156,470.715 162.156,470.186 161.83,469.861C160.84,468.87 158.854,466.885 157.864,465.895C157.538,465.569 157.01,465.569 156.684,465.895L151.092,471.487L145.499,465.895C145.173,465.569 144.645,465.569 144.32,465.895C143.329,466.885 141.344,468.87 140.354,469.861C140.028,470.186 140.028,470.715 140.354,471.04L145.946,476.633Z" style="fill:rgb(51,51,51);fill-rule:nonzero;"/>
    </g>
</svg>
