<?xml version="1.0" encoding="UTF-8" standalone="no"?>
<!DOCTYPE svg PUBLIC "-//W3C//DTD SVG 1.1//EN" "http://www.w3.org/Graphics/SVG/1.1/DTD/svg11.dtd">
<svg width="100%" height="100%" viewBox="0 0 85 54" version="1.1" xmlns="http://www.w3.org/2000/svg" xmlns:xlink="http://www.w3.org/1999/xlink" xml:space="preserve" xmlns:serif="http://www.serif.com/" style="fill-rule:evenodd;clip-rule:evenodd;stroke-linejoin:round;stroke-miterlimit:2;">
    <g transform="matrix(1,0,0,1,-80,-382)">
        <path d="M131.052,382.037C130.649,382.037 130.167,382.165 129.652,382.43L106.373,395.599C104.96,396.33 103.802,397.839 103.802,398.953L103.802,418.676C103.802,419.791 104.96,421.3 106.373,422.03L129.652,435.2C130.167,435.465 130.649,435.592 131.052,435.592C131.755,435.592 132.222,435.207 132.222,434.498L132.222,418.217L132.223,399.413L132.223,383.131C132.223,382.422 131.755,382.037 131.052,382.037ZM153.294,382.766L152.765,382.254C152.165,381.726 150.774,382.195 149.674,383.295L148.859,384.11C147.76,385.209 147.371,386.552 147.999,387.094L148.83,387.903C160.336,399.41 160.337,418.133 148.831,429.639C148.638,429.832 148.442,430.022 148.245,430.205L147.795,430.631C147.28,431.073 147.76,432.333 148.86,433.433L149.674,434.247C150.774,435.347 152.093,435.883 152.604,435.433L153.055,435.004C153.25,434.82 153.444,434.633 153.635,434.442C167.79,420.287 167.79,397.256 153.634,383.098C153.521,382.987 153.408,382.873 153.294,382.766ZM139.017,397.716C145.111,403.812 145.11,413.73 139.017,419.824L138.374,420.467C137.603,421.059 137.87,422.442 138.97,423.544L139.82,424.392C140.92,425.494 142.435,425.886 143.181,425.266L143.82,424.628C152.563,415.883 152.561,401.658 143.818,392.915L143.181,392.278C142.432,391.658 140.92,392.049 139.821,393.148L138.972,393.997C137.87,395.1 137.602,396.484 138.374,397.074L139.017,397.716ZM101.835,420.574L89.221,420.574C86.603,420.574 84.254,419.419 82.656,417.591L82.592,417.575L82.643,417.575C81.478,416.237 80.716,414.539 80.543,412.671L80.508,412.055L80.506,411.86L80.506,405.713L80.521,405.257L80.543,404.958C80.716,403.09 81.478,401.392 82.643,400.054L82.592,400.054L82.656,400.038C84.254,398.21 86.603,397.055 89.221,397.055L101.835,397.055L101.835,420.574Z" style="fill:rgb(51,51,51);fill-rule:nonzero;"/>
    </g>
</svg>
