<?xml version="1.0" encoding="UTF-8" standalone="no"?>
<!DOCTYPE svg PUBLIC "-//W3C//DTD SVG 1.1//EN" "http://www.w3.org/Graphics/SVG/1.1/DTD/svg11.dtd">
<svg width="100%" height="100%" viewBox="0 0 51 51" version="1.1" xmlns="http://www.w3.org/2000/svg" xmlns:xlink="http://www.w3.org/1999/xlink" xml:space="preserve" xmlns:serif="http://www.serif.com/" style="fill-rule:evenodd;clip-rule:evenodd;stroke-linejoin:round;stroke-miterlimit:2;">
    <g transform="matrix(1,0,0,1,-415,-71)">
        <g transform="matrix(0.447976,0,0,0.447976,70.6232,50.8611)">
            <path d="M837.589,60.742C835.347,63.002 831.053,67.317 828.173,70.21L827.035,71.352C824.287,68.591 819.044,63.325 816.481,60.742L816.454,60.714C815.387,59.626 814.891,58.324 814.89,57.06C814.889,55.68 813.768,54.561 812.388,54.562C811.008,54.563 809.889,55.685 809.89,57.064C809.89,57.5 809.919,57.939 809.978,58.377L772.922,58.377C771.541,58.377 770.422,59.497 770.422,60.877L770.422,156.286C770.422,157.667 771.541,158.786 772.922,158.786L879.088,158.786C880.468,158.786 881.588,157.667 881.588,156.286L881.588,60.877C881.588,59.497 880.468,58.377 879.088,58.377L844.108,58.377C844.723,53.768 841.994,49.138 837.414,47.739C832.838,46.342 829.932,47.655 827.035,50.338C824.139,47.655 821.233,46.342 816.656,47.739C815.961,47.951 815.31,48.237 814.706,48.585C813.511,49.274 813.1,50.804 813.789,52C814.479,53.195 816.009,53.606 817.204,52.917C817.486,52.754 817.791,52.62 818.116,52.521C821.405,51.517 823.072,53.293 825.203,55.59C825.676,56.1 826.34,56.389 827.035,56.389C827.731,56.389 828.395,56.1 828.868,55.59C830.999,53.293 832.666,51.517 835.954,52.521C839.235,53.523 840.388,57.921 837.589,60.742ZM827.035,77.395C826.371,77.395 825.733,77.131 825.264,76.66C825.264,76.66 823.073,74.46 820.436,71.811C818.459,69.824 816.23,67.584 814.487,65.829C814.284,65.625 814.088,65.428 813.9,65.238L813.659,64.996L813.425,64.76C813.252,64.586 813.087,64.42 812.932,64.263L812.9,64.231L812.851,64.181C812.596,63.919 812.359,63.651 812.14,63.377L775.422,63.377C775.422,63.377 775.422,153.786 775.422,153.786C775.422,153.786 876.588,153.786 876.588,153.786C876.588,153.786 876.588,63.377 876.588,63.377L841.932,63.377C841.712,63.651 841.475,63.919 841.22,64.181L841.192,64.209L841.168,64.234C841.159,64.244 841.149,64.254 841.139,64.263C837.569,67.861 828.807,76.66 828.807,76.66C828.468,77 828.042,77.232 827.581,77.335C827.403,77.375 827.22,77.395 827.035,77.395ZM807.3,128.437C807.3,127.056 806.181,125.937 804.8,125.937L793.396,125.937C792.016,125.937 790.896,127.056 790.896,128.437L790.896,139.841C790.896,141.221 792.016,142.341 793.396,142.341L804.8,142.341C806.181,142.341 807.3,141.221 807.3,139.841L807.3,128.437ZM802.3,130.937L802.3,137.341C802.3,137.341 795.896,137.341 795.896,137.341C795.896,137.341 795.896,130.937 795.896,130.937L802.3,130.937ZM812.192,136.639L860.557,136.639C861.937,136.639 863.057,135.519 863.057,134.139C863.057,132.759 861.937,131.639 860.557,131.639L812.192,131.639C810.812,131.639 809.692,132.759 809.692,134.139C809.692,135.519 810.812,136.639 812.192,136.639ZM807.3,105.792C807.3,104.411 806.181,103.292 804.8,103.292L793.396,103.292C792.016,103.292 790.896,104.411 790.896,105.792L790.896,117.195C790.896,118.576 792.016,119.695 793.396,119.695L804.8,119.695C806.181,119.695 807.3,118.576 807.3,117.195L807.3,105.792ZM802.3,108.292L802.3,114.695C802.3,114.695 795.896,114.695 795.896,114.695C795.896,114.695 795.896,108.292 795.896,108.292L802.3,108.292ZM812.192,113.993L860.557,113.993C861.937,113.993 863.057,112.873 863.057,111.493C863.057,110.114 861.937,108.993 860.557,108.993L812.192,108.993C810.812,108.993 809.692,110.114 809.692,111.493C809.692,112.873 810.812,113.993 812.192,113.993ZM807.3,83.146C807.3,81.765 806.181,80.646 804.8,80.646L793.396,80.646C792.016,80.646 790.896,81.765 790.896,83.146L790.896,94.55C790.896,95.93 792.016,97.05 793.396,97.05L804.8,97.05C806.181,97.05 807.3,95.93 807.3,94.55L807.3,83.146ZM802.3,85.646L802.3,92.05C802.3,92.05 795.896,92.05 795.896,92.05C795.896,92.05 795.896,85.646 795.896,85.646L802.3,85.646ZM812.192,91.348L860.557,91.348C861.937,91.348 863.057,90.228 863.057,88.848C863.057,87.468 861.937,86.348 860.557,86.348L812.192,86.348C810.812,86.348 809.692,87.468 809.692,88.848C809.692,90.228 810.812,91.348 812.192,91.348Z" style="fill:rgb(46,53,79);"/>
        </g>
    </g>
</svg>
